<svg width="15" height="20" viewBox="0 0 15 20" fill="none" xmlns="http://www.w3.org/2000/svg">
<path d="M0.646844 18.1047C0.646844 18.6183 1.06779 19.0393 1.58135 19.0393C2.10333 19.0393 2.52428 18.6183 2.52428 18.1047V3.15261C2.52428 2.86636 2.70108 2.68115 2.97891 2.68115H12.0293C12.3072 2.68115 12.484 2.86636 12.484 3.15261V18.1047C12.484 18.6183 12.9049 19.0393 13.4269 19.0393C13.9404 19.0393 14.3614 18.6183 14.3614 18.1047V2.95055C14.3614 1.63719 13.5195 0.81213 12.1893 0.81213H2.81895C1.48874 0.81213 0.646844 1.63719 0.646844 2.95055V18.1047ZM3.53456 18.3994C3.53456 18.6015 3.6861 18.6941 3.89658 18.6099L6.48121 17.4902C6.7001 17.406 6.79271 17.3134 6.79271 17.1029V5.20685C6.79271 5.00479 6.7001 4.91218 6.48963 4.81957L3.89658 3.69985C3.6861 3.61566 3.53456 3.71668 3.53456 3.91032V18.3994Z" fill="#FF8B43"/>
</svg>
