<svg width="18" height="20" viewBox="0 0 18 20" fill="none" xmlns="http://www.w3.org/2000/svg">
<path d="M16.0763 14.1436C15.8684 13.9541 15.75 13.6859 15.75 13.4046V8.71795C15.75 5.79611 14.1613 3.31586 11.3615 2.41632C10.9739 2.29182 10.6875 1.94548 10.6875 1.53846V1.53846C10.6875 0.68718 9.93375 0 9 0C8.06625 0 7.3125 0.68718 7.3125 1.53846V1.53846C7.3125 1.94542 7.02596 2.29166 6.63833 2.41557C3.82971 3.31338 2.25 5.78594 2.25 8.71795V13.4046C2.25 13.6859 2.13156 13.9541 1.92372 14.1436L0.232148 15.6858C0.084269 15.8206 0 16.0115 0 16.2116V16.2116C0 16.6045 0.318549 16.9231 0.711499 16.9231H17.2885C17.6815 16.9231 18 16.6045 18 16.2116V16.2116C18 16.0115 17.9157 15.8206 17.7679 15.6858L16.0763 14.1436ZM9 20C9.86046 20 10.6121 19.5537 10.9903 18.9025C11.2676 18.4249 10.8023 17.9487 10.25 17.9487H7.75C7.19772 17.9487 6.73178 18.4248 7.00788 18.9031C7.38357 19.554 8.132 20 9 20Z" fill="#FF8B43"/>
</svg>
