<svg width="8" height="14" viewBox="0 0 8 14" fill="none" xmlns="http://www.w3.org/2000/svg">
<path d="M7.84375 6.70368C7.84375 6.96736 7.74581 7.19336 7.53488 7.38923L1.67383 13.1297C1.50809 13.2955 1.29715 13.3859 1.04855 13.3859C0.551339 13.3859 0.152065 12.9941 0.152065 12.4894C0.152065 12.2408 0.257534 12.0223 0.42327 11.8491L5.70424 6.70368L0.42327 1.55831C0.257534 1.38504 0.152065 1.15904 0.152065 0.917969C0.152065 0.413225 0.551339 0.0214844 1.04855 0.0214844C1.29715 0.0214844 1.50809 0.111886 1.67383 0.277623L7.53488 6.0106C7.74581 6.21401 7.84375 6.44001 7.84375 6.70368Z" fill="#FF8B43"/>
</svg>
