<svg width="71" height="106" viewBox="0 0 71 106" fill="none" xmlns="http://www.w3.org/2000/svg">
<g opacity="0.6">
<path d="M9.33583 96.12C10.4282 101.38 16.6545 94.9145 16.6545 94.9145L24.0824 94.0378C24.0824 94.0378 28.7795 94.1474 31.8381 96.5584C34.8966 98.9694 36.9721 95.7912 36.9721 95.7912C40.418 96.9436 44.6397 96.9389 48.2959 96.5699C53.5645 96.0381 57.7875 91.9582 58.5116 86.6955C62.5962 57.0089 40.1399 42.4198 40.1399 42.4198L33.5858 24.6659C33.5858 24.6659 35.6613 19.5151 36.3167 14.9122C36.9721 10.3093 32.1658 5.92562 26.2671 1.54193C23.6865 -0.375936 20.7295 -0.238088 18.2194 0.523812C15.4035 1.37851 12.9473 3.13612 11.1323 5.459C9.6287 7.38343 7.04972 10.1089 4.21491 10.5811C3.23399 10.7433 2.26618 11.1334 1.36172 11.8436C0.426665 12.5779 0.0137705 13.8031 0.000662433 15.3264C-0.0692497 21.9809 5.40776 29.9921 10.2097 31.2414C16.1083 32.7757 12.9405 47.3515 12.9405 47.3515C3.32793 60.9409 10.1005 76.0646 10.1005 76.0646L8.35271 88.339C8.35271 88.339 8.24349 90.8596 9.33583 96.12Z" fill="#3F3D56"/>
<path d="M41.4505 67.8452L39.0474 97.8735C39.0474 97.8735 42.3244 106.202 31.1825 105.764C20.0406 105.326 26.5947 88.2294 26.5947 88.2294L30.0902 65.8726" fill="#3F3D56"/>
<path d="M32.0117 106C31.7392 106 31.4604 105.994 31.1741 105.983C28.7075 105.886 26.8913 104.974 25.7755 103.274C22.5853 98.4122 26.1335 88.8285 26.3825 88.1724L29.8743 65.8383C29.8931 65.7187 30.0041 65.6382 30.1242 65.6557C30.2432 65.6746 30.3247 65.7867 30.3062 65.9064L26.8107 88.2632C26.8081 88.2784 26.8043 88.2934 26.7987 88.3079C26.7605 88.407 23.0297 98.293 26.1407 103.034C27.1746 104.609 28.8737 105.454 31.1911 105.545C34.8291 105.687 37.276 104.909 38.4657 103.229C40.022 101.03 38.8561 97.9841 38.8441 97.9535C38.832 97.9225 38.8271 97.8889 38.8296 97.8557L41.2328 67.8274C41.2424 67.7069 41.3456 67.619 41.4681 67.6265C41.5884 67.6363 41.678 67.7418 41.6684 67.8625L39.2691 97.8416C39.4279 98.2714 40.4231 101.218 38.8236 103.48C37.6402 105.153 35.3503 106 32.0117 106Z" fill="#2F2E41"/>
<path d="M21.5699 73.9824C21.5699 73.9824 22.2253 101.819 8.46183 101.161C-5.30168 100.504 7.15102 91.7364 7.15102 91.7364L8.3526 88.339" fill="#3F3D56"/>
<path d="M8.93407 101.392C8.77428 101.392 8.61362 101.388 8.45127 101.38C4.5214 101.192 2.30097 100.309 1.85177 98.7547C1.04254 95.9537 6.31715 92.0649 6.96807 91.5976L8.14661 88.2657C8.18693 88.1514 8.31174 88.0919 8.42545 88.1324C8.53917 88.1728 8.59869 88.2981 8.55837 88.4122L7.35679 91.8095C7.34164 91.8525 7.31348 91.8896 7.27636 91.9157C7.21876 91.9563 1.51372 96.011 2.27153 98.6327C2.66313 99.9874 4.74925 100.764 8.47218 100.942C10.9515 101.062 13.1249 100.225 14.9281 98.4591C21.6902 91.8363 21.3556 74.1652 21.3514 73.9875C21.3486 73.8666 21.444 73.7662 21.5647 73.7632C21.6789 73.7634 21.7853 73.8563 21.7883 73.9772C21.8056 74.7106 22.1318 92.0156 15.2336 98.7725C13.4579 100.512 11.3404 101.392 8.93407 101.392Z" fill="#2F2E41"/>
<path d="M0.000976562 15.3264C1.56958 15.5149 4.02516 15.5061 6.0591 14.145C8.23723 12.6874 5.97608 11.3285 4.21523 10.5811C3.23431 10.7432 2.26649 11.1334 1.36203 11.8436C0.426979 12.5778 0.0140847 13.8031 0.000976562 15.3264Z" fill="#2F2E41"/>
<path d="M25.3491 11.3855C25.3491 11.3855 21.5369 1.56244 26.9969 1.42499C32.4569 1.28753 36.7695 9.80001 36.7695 9.80001C36.7695 9.80001 50.4736 34.8621 31.698 33.5106C12.9225 32.1591 21.8945 22.1545 21.8945 22.1545C21.8945 22.1545 26.1769 16.8723 25.3491 11.3855Z" fill="#2F2E41"/>
<path d="M46.2651 84.7915C48.6831 85.8707 51.2094 86.972 53.8538 86.8666C56.4981 86.7613 59.2809 85.0527 59.693 82.43C59.9057 81.0761 59.4838 79.6236 60.0005 78.3548C60.6957 76.6476 62.9382 75.9893 64.6813 76.5743C66.4245 77.1593 67.7051 78.6679 68.6233 80.2655C70.3412 83.2544 71.0295 87.1774 69.1876 90.091C67.5909 92.6168 64.5624 93.7582 61.7454 94.7372C57.9932 96.0412 53.8039 97.3354 50.1679 95.7336C46.5112 94.1227 44.5193 89.4684 45.8734 85.6989" fill="#3F3D56"/>
<path d="M38.1985 37.4631C38.1985 37.4631 43.0048 39.8742 40.6016 42.5044C38.1985 45.1346 23.3426 52.5869 17.8809 51.4909C12.4192 50.395 11.1084 47.1073 11.1084 46.2305C11.1084 45.3538 11.5204 34.7482 13.2681 35.1866C15.0159 35.6249 25.9643 45.573 38.1985 37.4631Z" fill="#FF8B43"/>
</g>
</svg>
