<svg width="22" height="20" viewBox="0 0 22 20" fill="none" xmlns="http://www.w3.org/2000/svg">
<path d="M0.207253 9.52996C0.207253 10.0407 0.588113 10.4561 1.20268 10.4561C1.48833 10.4561 1.75666 10.309 1.99037 10.1099L10.5424 2.94283C10.8021 2.71777 11.105 2.71777 11.3734 2.94283L19.9081 10.1099C20.1418 10.309 20.4101 10.4561 20.7044 10.4561C21.267 10.4561 21.6912 10.1013 21.6912 9.54727C21.6912 9.22701 21.5613 8.95867 21.3103 8.74228L18.8694 6.69083V3.02073C18.8694 2.63121 18.6097 2.38019 18.2202 2.38019H16.8699C16.4803 2.38019 16.212 2.63121 16.212 3.02073V4.46626L12.2995 1.17702C11.4859 0.484551 10.4385 0.484551 9.61621 1.17702L0.596769 8.75093C0.337092 8.95867 0.207253 9.25297 0.207253 9.52996ZM3.08101 17.3462C3.08101 18.6187 3.90332 19.4063 5.22767 19.4063H16.6708C17.9951 19.4063 18.8174 18.6187 18.8174 17.3462V10.9495L11.4945 4.80384C11.157 4.5182 10.7415 4.52685 10.4039 4.80384L3.08101 10.9409V17.3462ZM13.243 17.4761H8.64675V11.9363C8.64675 11.5295 8.92374 11.2611 9.33057 11.2611H12.5679C12.9834 11.2611 13.243 11.5295 13.243 11.9363V17.4761Z" fill="#FF8B43"/>
</svg>
