<svg width="18" height="18" viewBox="0 0 18 18" fill="none" xmlns="http://www.w3.org/2000/svg">
<path d="M16.3352 2.99037L16.9157 2.40135C17.2742 2.03428 17.2913 1.52209 16.9413 1.17209L16.6937 0.933069C16.3864 0.625755 15.8571 0.676974 15.5157 1.01843L14.9352 1.59038L16.3352 2.99037ZM6.21942 12.0561L8.02063 11.3135L15.6693 3.65621L14.2608 2.26476L6.62064 9.92201L5.84382 11.6635C5.74992 11.8939 6.00601 12.1415 6.21942 12.0561ZM2.90726 17.8866H12.8011C14.5084 17.8866 15.5071 16.8878 15.5071 15.0183V6.07205L13.6035 7.97569V14.8134C13.6035 15.5988 13.1937 15.9829 12.6389 15.9829H3.06945C2.31824 15.9829 1.91703 15.5988 1.91703 14.8134V5.45742C1.91703 4.67206 2.31824 4.28792 3.06945 4.28792H9.99256L11.8962 2.39281H2.90726C1.02069 2.39281 0.0133861 3.38305 0.0133861 5.26108V15.0183C0.0133861 16.8878 1.02069 17.8866 2.90726 17.8866Z" fill="#FF8B43"/>
</svg>
