<svg width="20" height="19" viewBox="0 0 20 19" fill="none" xmlns="http://www.w3.org/2000/svg">
<path d="M10.2901 4.77197C10.8691 4.22197 11.7774 4.22197 12.3564 4.77197L14.8653 7.15543C15.4878 7.74681 15.4878 8.73905 14.8653 9.33043L5.12098 18.5875C4.84221 18.8523 4.47237 19 4.08786 19H1.5C0.671573 19 0 18.3284 0 17.5V15.1915C0 14.7804 0.16878 14.3872 0.466876 14.104L10.2901 4.77197ZM18.3804 5.99103C17.8015 6.54104 16.8931 6.54104 16.3142 5.99104L13.8053 3.60757C13.1828 3.0162 13.1828 2.02395 13.8053 1.43258L14.9477 0.347289C15.4351 -0.115763 16.2225 -0.115763 16.7099 0.347289L19.6344 3.12561C20.1219 3.58866 20.1219 4.33667 19.6344 4.79972L18.3804 5.99103Z" fill="#5F9DF7"/>
</svg>
