<svg width="21" height="20" viewBox="0 0 21 20" fill="none" xmlns="http://www.w3.org/2000/svg">
<path d="M10.4912 19.8656C15.8391 19.8656 20.2669 15.4378 20.2669 10.0899C20.2669 4.75163 15.8295 0.314233 10.4816 0.314233C5.14335 0.314233 0.715538 4.75163 0.715538 10.0899C0.715538 15.4378 5.15294 19.8656 10.4912 19.8656ZM10.4912 9.79282C9.09197 9.78324 7.95147 8.6044 7.95147 7.01346C7.95147 5.53752 9.09197 4.31077 10.4912 4.31077C11.8905 4.31077 13.031 5.53752 13.031 7.01346C13.031 8.6044 11.8905 9.80241 10.4912 9.79282ZM5.97716 15.1119C5.57463 15.1119 5.39254 14.8532 5.39254 14.489C5.39254 13.4156 7.02182 10.6075 10.4912 10.6075C13.9606 10.6075 15.5899 13.4156 15.5899 14.489C15.5899 14.8532 15.4078 15.1119 15.0053 15.1119H5.97716Z" fill="#FF8B43"/>
</svg>
