<svg width="248" height="174" viewBox="0 0 248 174" fill="none" xmlns="http://www.w3.org/2000/svg">
<path d="M149.345 26.9347L158.025 29.8011V17.2495H150.148L149.345 26.9347Z" fill="#F8A8AB"/>
<path d="M156.951 20.7217C161.728 20.7217 165.601 16.832 165.601 12.0339C165.601 7.23583 161.728 3.34619 156.951 3.34619C152.174 3.34619 148.301 7.23583 148.301 12.0339C148.301 16.832 152.174 20.7217 156.951 20.7217Z" fill="#F8A8AB"/>
<path d="M154.748 12.715L155.941 14.1686L158.097 10.3762C158.097 10.3762 160.849 10.5192 160.849 8.46641C160.849 6.41362 163.374 6.35575 163.374 6.35575C163.374 6.35575 166.95 0.085048 159.544 1.73613C159.544 1.73613 154.405 -1.79752 151.853 1.22208C151.853 1.22208 144.02 5.18467 146.26 12.0818L149.985 19.1933L150.829 17.5831C150.829 17.5831 150.318 10.8256 154.748 12.7082V12.715Z" fill="#2F2E43"/>
<path d="M153.84 157.203H146.742V167.317H153.84V157.203Z" fill="#F8A8AB"/>
<path d="M153.053 173.112C151.84 173.221 145.766 173.704 145.461 172.305C145.183 171.021 145.593 169.68 145.651 169.496C146.234 163.661 146.451 163.597 146.583 163.559C146.79 163.498 147.393 163.787 148.373 164.421L148.434 164.461L148.447 164.533C148.464 164.625 148.898 166.766 150.955 166.436C152.365 166.211 152.823 165.898 152.969 165.745C152.85 165.69 152.701 165.595 152.596 165.432C152.443 165.193 152.416 164.887 152.518 164.519C152.782 163.549 153.575 162.116 153.609 162.058L153.701 161.895L161.768 167.362L166.75 168.792C167.127 168.901 167.428 169.169 167.581 169.53C167.791 170.034 167.662 170.62 167.255 170.987C166.35 171.804 164.554 173.204 162.666 173.377C162.164 173.425 161.5 173.442 160.754 173.442C157.639 173.442 153.091 173.118 153.057 173.112H153.053Z" fill="#2F2E43"/>
<path d="M162.903 70.0059L144.285 69.0493C144.285 69.0493 141.431 79.9158 145.037 91.2385L145.471 159.423H155.992L165.91 89.087L162.903 70.0059Z" fill="#2F2E43"/>
<path d="M159.764 24.5211L149.545 19.0742C149.545 19.0742 138.533 35.2378 140.055 43.9936C141.58 52.7494 144.285 69.0492 144.285 69.0492L166.828 70.0058L162.893 37.9067L159.764 24.5211Z" fill="#E2E3E4"/>
<path d="M158.89 157.203H151.792V167.317H158.89V157.203Z" fill="#F8A8AB"/>
<path d="M158.103 173.112C156.89 173.221 150.816 173.704 150.511 172.305C150.233 171.021 150.643 169.68 150.701 169.496C151.284 163.661 151.5 163.597 151.633 163.559C151.839 163.498 152.443 163.787 153.422 164.421L153.483 164.461L153.497 164.533C153.514 164.625 153.948 166.766 156.005 166.436C157.415 166.211 157.873 165.898 158.019 165.745C157.9 165.69 157.751 165.595 157.646 165.432C157.493 165.193 157.466 164.887 157.568 164.519C157.832 163.549 158.625 162.116 158.659 162.058L158.751 161.895L166.818 167.362L171.8 168.792C172.176 168.901 172.478 169.169 172.631 169.53C172.841 170.034 172.712 170.62 172.305 170.987C171.4 171.804 169.604 173.204 167.716 173.377C167.214 173.425 166.55 173.442 165.804 173.442C162.689 173.442 158.141 173.118 158.107 173.112H158.103Z" fill="#2F2E43"/>
<path d="M166.828 70.0059L144.285 69.0493C144.285 69.0493 141.431 79.9158 145.037 91.2385L149.396 159.423H159.917L169.835 89.087L166.828 70.0059Z" fill="#2F2E43"/>
<path d="M164.476 114.541C162.9 114.541 161.181 114.153 159.483 113.771C158.225 113.489 157.117 113.417 156.229 113.363C154.88 113.278 153.812 113.21 153.219 112.416C152.633 111.633 152.633 110.302 153.219 107.678C153.999 104.192 155.734 98.6222 157.856 94.0401C160.598 88.1302 163.232 85.4102 165.689 85.9651C168.98 86.7072 170.292 92.2256 170.783 95.446C171.468 99.9431 171.407 105.288 170.634 108.747C169.611 113.325 167.262 114.537 164.472 114.537H164.476V114.541ZM165.076 86.9251C163.269 86.9251 161.052 89.5736 158.781 94.4758C156.69 98.9865 154.982 104.471 154.212 107.906C153.721 110.112 153.666 111.313 154.033 111.807C154.344 112.222 155.161 112.277 156.29 112.345C157.215 112.403 158.368 112.474 159.703 112.777C165.011 113.972 168.329 114.408 169.641 108.529C171.048 102.231 169.977 87.9838 165.465 86.966C165.337 86.9353 165.204 86.9217 165.072 86.9217H165.076V86.9251Z" fill="#DFDFE0"/>
<path d="M185.941 156.873L135.387 157.207L127.533 153.578L132.109 106.697L136.712 106.932L184.074 109.353L185.941 156.873Z" fill="#FF8B43"/>
<path opacity="0.2" d="M135.387 157.207L127.533 153.578L132.109 106.697L136.712 106.932L135.387 157.207Z" fill="#272223"/>
<path d="M165.239 105.894C164.3 105.894 163.273 105.662 162.263 105.434C161.514 105.264 160.853 105.223 160.321 105.189C159.517 105.138 158.88 105.097 158.527 104.624C158.178 104.158 158.178 103.365 158.527 101.799C158.992 99.7185 160.026 96.3993 161.293 93.6691C162.927 90.1457 164.5 88.5252 165.964 88.8554C167.927 89.298 168.71 92.5865 169.001 94.51C169.408 97.1925 169.374 100.379 168.913 102.439C168.303 105.169 166.903 105.89 165.239 105.89V105.894ZM165.598 89.4308C164.52 89.4308 163.198 91.0103 161.846 93.9346C160.598 96.624 159.578 99.8921 159.124 101.942C158.829 103.256 158.799 103.974 159.019 104.267C159.205 104.515 159.69 104.546 160.365 104.587C160.917 104.621 161.602 104.665 162.398 104.845C165.561 105.557 167.54 105.816 168.323 102.313C169.16 98.5577 168.523 90.0639 165.835 89.458C165.757 89.441 165.679 89.4308 165.601 89.4308H165.598Z" fill="#DFDFE0"/>
<path d="M178.034 131.137L147.894 131.334L143.21 129.172L145.939 101.22L148.684 101.359L176.922 102.803L178.034 131.137Z" fill="#E2E3E4"/>
<path opacity="0.2" d="M147.894 131.334L143.21 129.172L145.939 101.22L148.684 101.359L147.894 131.334Z" fill="#272223"/>
<path d="M167.001 87.0272C167.506 89.5192 166.581 91.7966 164.94 92.1132C163.3 92.4298 161.561 90.663 161.059 88.1711C160.846 87.177 160.88 86.1489 161.158 85.1685L159.161 74.5778L164.32 73.7573L165.74 84.2834C166.381 85.0868 166.811 86.0264 167.001 87.0272Z" fill="#F8A8AB"/>
<path d="M146.766 24.3238C146.766 24.3238 154.311 23.3637 155.212 25.6276C156.114 27.8915 166.709 81.7779 166.709 81.7779H159.72L146.766 24.3238Z" fill="#E2E3E4"/>
<path d="M94.3436 35.8571L86.7646 38.3593V27.4043H93.642L94.3436 35.8571Z" fill="#F8A8AB"/>
<path d="M87.7032 30.4376C91.8739 30.4376 95.255 27.0418 95.255 22.8528C95.255 18.6639 91.8739 15.2681 87.7032 15.2681C83.5324 15.2681 80.1514 18.6639 80.1514 22.8528C80.1514 27.0418 83.5324 30.4376 87.7032 30.4376Z" fill="#F8A8AB"/>
<path d="M89.7782 22.1006C88.5139 22.0632 87.6835 20.7797 87.192 19.6087C86.7006 18.4376 86.1955 17.0929 85.0227 16.6095C84.0635 16.2146 82.3722 18.887 81.6163 18.1755C80.8265 17.4333 81.596 13.6239 82.4332 12.9397C83.2704 12.2554 84.416 12.1226 85.4939 12.0716C88.1241 11.949 90.7714 12.1635 93.3508 12.7048C94.9472 13.0384 96.5877 13.5422 97.7402 14.6997C99.1977 16.1703 99.5705 18.3865 99.6756 20.4597C99.7841 22.5806 99.662 24.8002 98.635 26.6555C97.608 28.5109 95.459 29.8794 93.3982 29.4062C93.1915 28.2828 93.4016 27.1287 93.483 25.9849C93.5609 24.8445 93.4796 23.6121 92.7847 22.7032C92.0899 21.7942 90.6087 21.4334 89.802 22.2402" fill="#2F2E43"/>
<path d="M99.0683 24.729C99.8242 24.1741 100.729 23.7077 101.658 23.8234C102.661 23.946 103.512 24.7766 103.77 25.7605C104.027 26.7443 103.739 27.8269 103.115 28.6303C102.495 29.4337 101.57 29.9648 100.594 30.2303C100.028 30.3835 99.4073 30.4482 98.8684 30.2167C98.0752 29.8729 97.6447 28.855 97.9566 28.0448" fill="#2F2E43"/>
<path d="M91.8418 157.765H84.7441V167.879H91.8418V157.765Z" fill="#F8A8AB"/>
<path d="M77.8294 174C77.0837 174 76.4194 173.983 75.9177 173.935C74.0332 173.762 72.2333 172.363 71.3283 171.545C70.9216 171.178 70.7928 170.592 71.0029 170.088C71.1555 169.728 71.4571 169.455 71.8334 169.35L76.8159 167.92L84.883 162.453L84.9745 162.616C85.0084 162.677 85.8015 164.111 86.0659 165.077C86.1676 165.445 86.1405 165.751 85.9879 165.99C85.8829 166.153 85.7337 166.248 85.6151 166.303C85.7608 166.456 86.2184 166.769 87.6285 166.994C89.6859 167.321 90.1198 165.179 90.1367 165.091L90.1503 165.019L90.2113 164.979C91.1908 164.345 91.7942 164.056 92.0009 164.117C92.1297 164.155 92.3467 164.223 92.933 170.054C92.9907 170.238 93.4008 171.58 93.1229 172.863C92.8212 174.259 86.7472 173.779 85.5304 173.67C85.4965 173.673 80.9478 174 77.8328 174H77.8294Z" fill="#2F2E43"/>
<path d="M112.053 149.812L106.03 153.584L111.359 162.166L117.382 158.394L112.053 149.812Z" fill="#F8A8AB"/>
<path d="M104.051 172.615C103.218 172.615 102.452 172.513 101.906 172.417C101.37 172.322 100.95 171.893 100.862 171.355C100.801 170.967 100.913 170.575 101.177 170.286L104.651 166.426L108.617 157.5L108.78 157.588C108.841 157.622 110.268 158.415 111.003 159.096C111.285 159.355 111.424 159.631 111.417 159.913C111.413 160.111 111.339 160.267 111.264 160.38C111.468 160.434 112.02 160.455 113.335 159.896C115.254 159.083 114.495 157.033 114.461 156.948L114.434 156.88L114.464 156.815C114.962 155.757 115.318 155.192 115.528 155.134C115.661 155.096 115.877 155.038 119.447 159.678C119.592 159.801 120.647 160.723 121.087 161.959C121.565 163.304 116.159 166.126 115.071 166.678C115.037 166.705 109.38 170.834 107.055 172.009C106.133 172.475 105.041 172.618 104.048 172.618L104.051 172.615Z" fill="#2F2E43"/>
<path d="M97.0685 73.1855H77.1958L75.3926 91.7525L83.2834 160.356H93.4281L89.3709 120.733L105.827 156.506L114.843 150.167L101.993 116.771C101.993 116.771 106.583 87.6776 102.976 80.4299C99.3699 73.1821 97.0685 73.1855 97.0685 73.1855Z" fill="#2F2E43"/>
<path d="M106.952 74.3158H75.3926L84.8595 33.335H98.6107L106.952 74.3158Z" fill="#FF8B43"/>
<path d="M67.553 32.528C67.048 30.036 67.9733 27.7586 69.6138 27.442C71.2543 27.1254 72.9932 28.8922 73.4948 31.3841C73.7083 32.3782 73.6744 33.4063 73.3965 34.3867L75.3929 44.9775L70.2341 45.7979L68.8139 35.2718C68.1733 34.4684 67.7428 33.5288 67.553 32.528Z" fill="#F8A8AB"/>
<path d="M98.2755 33.3349H86.1479L77.9724 49.7572L74.8879 37.4507L68.1123 38.1724C68.1123 38.1724 69.7155 62.2169 76.7217 61.4033C83.7278 60.5897 100.069 38.9282 98.2721 33.3315H98.2755V33.3349Z" fill="#FF8B43"/>
<path d="M109.729 111.228C108.79 111.228 107.763 110.997 106.753 110.769C106.004 110.599 105.343 110.558 104.811 110.524C104.007 110.473 103.37 110.432 103.018 109.959C102.669 109.492 102.669 108.699 103.018 107.133C103.482 105.053 104.516 101.734 105.784 99.0036C107.417 95.4801 108.99 93.8597 110.454 94.1899C112.417 94.6325 113.2 97.921 113.491 99.8444C113.898 102.527 113.864 105.713 113.403 107.773C112.793 110.503 111.393 111.225 109.729 111.225V111.228ZM110.088 94.7652C109.01 94.7652 107.688 96.3448 106.336 99.2691C105.089 101.958 104.068 105.227 103.614 107.276C103.319 108.59 103.289 109.308 103.509 109.601C103.696 109.85 104.18 109.88 104.855 109.921C105.407 109.955 106.092 109.999 106.889 110.18C110.051 110.891 112.03 111.15 112.813 107.647C113.651 103.892 113.013 95.3984 110.325 94.7925C110.248 94.7754 110.17 94.7652 110.092 94.7652H110.088Z" fill="#DFDFE0"/>
<path d="M122.527 136.468L92.3874 136.665L87.7031 134.503L90.4317 106.551L93.1772 106.69L121.415 108.134L122.527 136.468Z" fill="#E2E3E4"/>
<path opacity="0.2" d="M92.3874 136.665L87.7031 134.503L90.4317 106.551L93.1772 106.69L92.3874 136.665Z" fill="#272223"/>
<path d="M111.816 95.7865C112.322 98.2785 111.396 100.556 109.756 100.873C108.115 101.189 106.376 99.4223 105.875 96.9304C105.661 95.9363 105.695 94.9082 105.973 93.9278L103.977 83.337L109.135 82.5166L110.556 93.0427C111.196 93.8461 111.627 94.7857 111.816 95.7865Z" fill="#F8A8AB"/>
<path d="M91.3604 33.3347C91.3604 33.3347 98.2512 33.0419 98.6105 33.3347C100.492 34.8769 111.525 90.5404 111.525 90.5404H104.535L91.3604 33.3347Z" fill="#FF8B43"/>
</svg>
