<svg width="18" height="22" viewBox="0 0 18 22" fill="none" xmlns="http://www.w3.org/2000/svg">
<g clip-path="url(#clip0_3534_2157)">
<path d="M4.82293 3.88874H6.50491V2.30243C6.50491 1.8492 6.83015 1.541 7.33196 1.541H10.6588C11.1606 1.541 11.4858 1.8492 11.4858 2.30243V3.88874H13.1585V2.21178C13.1585 0.843015 12.2385 0 10.7517 0H7.22975C5.74291 0 4.82293 0.843015 4.82293 2.21178V3.88874ZM0.696955 4.96744H17.3031C17.6841 4.96744 18 4.65018 18 4.27853C18 3.90687 17.6841 3.59867 17.3031 3.59867H0.696955C0.325246 3.59867 0 3.90687 0 4.27853C0 4.65924 0.325246 4.96744 0.696955 4.96744ZM15.9184 4.77708H2.09087L2.69489 18.2109C2.74136 19.335 3.43831 19.9604 4.58131 19.9604H13.4187C14.571 19.9604 15.2679 19.335 15.3145 18.2109L15.9184 4.77708ZM6.05886 17.3679C5.72432 17.3679 5.492 17.1594 5.48271 16.8331L5.19463 6.96167C5.18534 6.64441 5.41766 6.42686 5.78008 6.42686C6.10533 6.42686 6.34693 6.63535 6.35623 6.9526L6.63501 16.8331C6.6443 17.1504 6.41198 17.3679 6.05886 17.3679ZM9.00465 17.3679C8.65153 17.3679 8.40062 17.1504 8.40062 16.8331V6.96167C8.40062 6.64441 8.65153 6.42686 9.00465 6.42686C9.35777 6.42686 9.5994 6.64441 9.5994 6.96167V16.8331C9.5994 17.1504 9.35777 17.3679 9.00465 17.3679ZM11.9411 17.3679C11.588 17.3679 11.3557 17.1504 11.365 16.8331L11.6438 6.96167C11.6531 6.63535 11.8947 6.42686 12.2199 6.42686C12.5731 6.42686 12.8147 6.64441 12.8053 6.96167L12.5173 16.8331C12.508 17.1594 12.2757 17.3679 11.9411 17.3679Z" fill="#5F9DF7"/>
</g>
<defs>
<clipPath id="clip0_3534_2157">
<rect width="18" height="22" fill="white"/>
</clipPath>
</defs>
</svg>
