<svg width="160" height="218" viewBox="0 0 160 218" fill="none" xmlns="http://www.w3.org/2000/svg">
<g clip-path="url(#clip0_2383_756)">
<path d="M141.626 217.648H71.9654C61.833 217.648 53.5908 209.444 53.5908 199.359V18.2896C53.5908 8.20413 61.833 0 71.9654 0H141.626C151.758 0 160 8.20413 160 18.2896V199.359C160 209.444 151.758 217.648 141.626 217.648Z" fill="#DADBDC"/>
<path d="M141.676 212.697H71.9149C64.4157 212.697 58.3125 206.622 58.3125 199.157V18.1352C58.3125 10.6707 64.4157 4.5957 71.9149 4.5957H141.676C149.175 4.5957 155.278 10.6707 155.278 18.1352V199.157C155.278 206.622 149.175 212.697 141.676 212.697Z" fill="white"/>
<path d="M116.661 16.6453H96.9336C94.3293 16.6453 92.2119 14.5378 92.2119 11.9455C92.2119 9.35319 94.3293 7.24561 96.9336 7.24561H116.661C119.265 7.24561 121.383 9.35319 121.383 11.9455C121.383 14.5378 119.265 16.6453 116.661 16.6453Z" fill="#DADBDC"/>
<path d="M136.792 71.9234H79.0672C77.9238 71.9234 76.9932 70.7458 76.9932 69.3024C76.9932 67.8591 77.9238 66.6814 79.0672 66.6814H136.792C137.935 66.6814 138.866 67.8591 138.866 69.3024C138.866 70.7458 137.935 71.9234 136.792 71.9234Z" fill="#DADBDC"/>
<path d="M136.792 83.5384H79.0672C77.9238 83.5384 76.9932 82.3607 76.9932 80.9174C76.9932 79.474 77.9238 78.2964 79.0672 78.2964H136.792C137.935 78.2964 138.866 79.474 138.866 80.9174C138.866 82.3607 137.935 83.5384 136.792 83.5384Z" fill="#DADBDC"/>
<path d="M120.239 95.1534H79.0672C77.9238 95.1534 76.9932 93.9757 76.9932 92.5324C76.9932 91.089 77.9238 89.9114 79.0672 89.9114H120.239C121.382 89.9114 122.313 91.089 122.313 92.5324C122.313 93.9757 121.382 95.1534 120.239 95.1534Z" fill="#DADBDC"/>
<path d="M106.795 163.444C120.404 163.444 131.435 152.463 131.435 138.917C131.435 125.372 120.404 114.391 106.795 114.391C93.187 114.391 82.1553 125.372 82.1553 138.917C82.1553 152.463 93.187 163.444 106.795 163.444Z" fill="#FF8B43"/>
<path d="M100.242 139.427C101.515 141.908 102.788 144.393 104.062 146.874C104.426 147.588 105.497 147.362 105.71 146.658C107.38 141.115 110.482 136.063 114.663 132.045C115.5 131.241 114.223 129.974 113.386 130.774C108.985 135.004 105.728 140.35 103.968 146.181L105.616 145.965C104.343 143.484 103.07 141 101.796 138.519C101.27 137.488 99.7114 138.397 100.238 139.424H100.242V139.427Z" fill="white"/>
<path d="M40.3708 109.25L34.3975 111.278L34.3037 102.694L39.7396 102.633L40.3708 109.25Z" fill="#F3A3A6"/>
<path d="M35.0036 105.063C38.3026 105.063 40.977 102.401 40.977 99.1174C40.977 95.8336 38.3026 93.1716 35.0036 93.1716C31.7046 93.1716 29.0303 95.8336 29.0303 99.1174C29.0303 102.401 31.7046 105.063 35.0036 105.063Z" fill="#F3A3A6"/>
<path d="M36.6369 98.5107C35.6377 98.4927 34.9704 97.4946 34.57 96.579C34.1696 95.667 33.7584 94.615 32.8314 94.2452C32.0703 93.9436 30.7573 96.0512 30.1513 95.5019C29.5201 94.9274 30.0972 91.933 30.7537 91.3908C31.4102 90.8487 32.3156 90.7338 33.1668 90.6835C35.2481 90.565 37.3402 90.7087 39.3855 91.1108C40.648 91.3585 41.9537 91.7391 42.8735 92.6367C44.0386 93.7749 44.3524 95.5091 44.4534 97.1319C44.558 98.7907 44.4787 100.532 43.6851 101.997C42.888 103.458 41.2034 104.55 39.5694 104.198C39.3963 103.318 39.5514 102.413 39.6055 101.516C39.6596 100.622 39.5803 99.656 39.0248 98.9487C38.4693 98.2414 37.2934 97.9721 36.6621 98.6112" fill="#2F2E43"/>
<path d="M44.0062 100.489C44.5977 100.047 45.3083 99.6741 46.0442 99.7566C46.8413 99.8428 47.5195 100.489 47.7323 101.257C47.9451 102.026 47.7251 102.877 47.2417 103.512C46.7584 104.148 46.0334 104.571 45.2614 104.787C44.8142 104.912 44.3272 104.966 43.898 104.787C43.2667 104.525 42.9204 103.731 43.1585 103.092" fill="#2F2E43"/>
<path d="M21.7795 156.661C21.4044 158.618 22.1511 160.395 23.4532 160.629C24.7518 160.862 26.1117 159.462 26.4868 157.505C26.6491 156.726 26.613 155.918 26.3822 155.153L30.9776 124.488L24.7879 123.4L22.7498 154.504C22.2521 155.139 21.9166 155.879 21.7795 156.665V156.661Z" fill="#F3A3A6"/>
<path d="M34.2888 107.34L30.0721 107.386C27.0963 107.867 26.3027 109.462 25.6606 112.391C24.6759 116.861 23.4206 122.818 23.6839 122.901C24.106 123.037 31.3202 126.319 34.9706 125.507L34.2888 107.34Z" fill="#FF8B43"/>
<path d="M39.4668 204.802L33.8545 204.865L33.9434 212.788L39.5557 212.726L39.4668 204.802Z" fill="#F3A3A6"/>
<path d="M28.5176 217.648C27.926 217.655 27.403 217.648 27.0062 217.616C25.5129 217.497 24.0809 216.417 23.3558 215.785C23.0312 215.501 22.923 215.042 23.0853 214.647C23.2007 214.363 23.4388 214.148 23.7346 214.058L27.6627 212.894L33.9932 208.539L34.0653 208.665C34.0942 208.712 34.7326 209.828 34.9491 210.586C35.032 210.873 35.014 211.114 34.895 211.3C34.812 211.43 34.6966 211.505 34.6028 211.552C34.7182 211.67 35.0825 211.911 36.2007 212.076C37.8275 212.316 38.1558 210.633 38.1666 210.561L38.1774 210.503L38.2243 210.471C38.9926 209.965 39.4651 209.735 39.6311 209.782C39.7357 209.81 39.9052 209.861 40.4174 214.428C40.4643 214.571 40.7998 215.62 40.5906 216.629C40.3633 217.727 35.5551 217.4 34.5956 217.325C34.5667 217.329 30.974 217.623 28.5104 217.648H28.5176Z" fill="#2F2E43"/>
<path d="M55.3744 198.388L50.6455 201.397L54.9334 208.074L59.6623 205.064L55.3744 198.388Z" fill="#F3A3A6"/>
<path d="M49.24 216.331C48.5799 216.338 47.9739 216.266 47.5411 216.194C47.1154 216.122 46.78 215.792 46.7078 215.368C46.6537 215.063 46.7439 214.758 46.9459 214.528L49.6584 211.473L52.7136 204.443L52.8435 204.511C52.8904 204.536 54.0266 205.146 54.6146 205.674C54.8382 205.875 54.95 206.087 54.95 206.31C54.95 206.464 54.8923 206.59 54.8346 206.676C54.9969 206.715 55.4334 206.726 56.4686 206.277C57.9764 205.624 57.3596 204.023 57.3307 203.958L57.3091 203.904L57.3343 203.854C57.7167 203.021 57.998 202.576 58.1604 202.525C58.265 202.497 58.4345 202.446 61.2985 206.051C61.414 206.148 62.258 206.859 62.6151 207.825C63.0047 208.877 58.7555 211.132 57.897 211.573C57.8718 211.595 53.4315 214.88 51.6063 215.821C50.8812 216.194 50.0191 216.316 49.2328 216.323L49.24 216.331Z" fill="#2F2E43"/>
<path d="M42.849 138.476L27.1365 138.648L25.874 153.211L32.7131 206.902L40.7353 206.812L37.1823 175.798L50.5069 203.689L57.5804 198.64L47.127 172.581C47.127 172.581 50.5033 149.742 47.5887 144.095C44.6742 138.447 42.8526 138.469 42.8526 138.469V138.476H42.849Z" fill="#2F2E43"/>
<path d="M50.6726 139.276L25.7188 139.553L32.8464 107.357L43.7218 107.235L50.6726 139.276Z" fill="#FF8B43"/>
<path d="M53.1112 156.317C53.5296 158.266 52.8227 160.058 51.5277 160.32C50.2328 160.582 48.844 159.214 48.4256 157.264C48.2452 156.489 48.2633 155.681 48.4761 154.909L43.1953 124.351L49.3598 123.127L52.0904 154.18C52.6026 154.805 52.9525 155.538 53.1112 156.32V156.317Z" fill="#F3A3A6"/>
<path d="M39.5046 107.282L43.7213 107.235C46.708 107.652 47.534 109.228 48.2446 112.143C49.3267 116.592 50.7155 122.516 50.4558 122.606C50.0337 122.75 42.8989 126.189 39.2305 125.46L39.5082 107.282H39.5046Z" fill="#FF8B43"/>
<path d="M77.5814 217.648C77.5814 217.842 77.4227 218 77.228 218H0.353496C0.158712 218 0 217.842 0 217.648C0 217.454 0.158712 217.296 0.353496 217.296H77.228C77.4227 217.296 77.5814 217.454 77.5814 217.648Z" fill="#3F3D58"/>
</g>
<defs>
<clipPath id="clip0_2383_756">
<rect width="160" height="218" fill="white"/>
</clipPath>
</defs>
</svg>
