<svg width="186" height="106" viewBox="0 0 186 106" fill="none" xmlns="http://www.w3.org/2000/svg">
<g opacity="0.6">
<path d="M30.5732 48.1969V18.4073C30.5732 17.9819 30.7427 17.5739 31.0442 17.273C31.3458 16.9722 31.7548 16.8032 32.1813 16.8032C32.6078 16.8032 33.0168 16.9722 33.3184 17.273C33.6199 17.5739 33.7893 17.9819 33.7893 18.4073V48.1969C33.7893 48.6223 33.6199 49.0303 33.3184 49.3311C33.0168 49.6319 32.6078 49.8009 32.1813 49.8009C31.7548 49.8009 31.3458 49.6319 31.0442 49.3311C30.7427 49.0303 30.5732 48.6223 30.5732 48.1969Z" fill="#F0F0F0"/>
<path d="M26.7256 48.1969V18.4073C26.7256 17.9819 26.895 17.5739 27.1966 17.273C27.4981 16.9722 27.9072 16.8032 28.3336 16.8032C28.7601 16.8032 29.1691 16.9722 29.4707 17.273C29.7723 17.5739 29.9417 17.9819 29.9417 18.4073V48.1969C29.9417 48.6223 29.7723 49.0303 29.4707 49.3311C29.1691 49.6319 28.7601 49.8009 28.3336 49.8009C27.9072 49.8009 27.4981 49.6319 27.1966 49.3311C26.895 49.0303 26.7256 48.6223 26.7256 48.1969Z" fill="#F0F0F0"/>
<path d="M22.8779 48.1969V18.4073C22.8779 17.9819 23.0474 17.5739 23.3489 17.273C23.6505 16.9722 24.0595 16.8032 24.486 16.8032C24.9125 16.8032 25.3215 16.9722 25.623 17.273C25.9246 17.5739 26.094 17.9819 26.094 18.4073V48.1969C26.094 48.6223 25.9246 49.0303 25.623 49.3311C25.3215 49.6319 24.9125 49.8009 24.486 49.8009C24.0595 49.8009 23.6505 49.6319 23.3489 49.3311C23.0474 49.0303 22.8779 48.6223 22.8779 48.1969Z" fill="#F0F0F0"/>
<path d="M165.026 105.542L166.511 105.576L157.556 57.8579L156.071 58.137L158.41 70.5157H150.876L153.214 58.137L151.729 57.8579L142.85 105.576L144.26 105.542L148.928 80.8275H160.357L165.026 105.542ZM149.275 78.9943L150.53 72.3489H158.756L160.011 78.9943H149.275Z" fill="#CACACA"/>
<path d="M100.179 48.9568V33.2862C100.179 32.8209 100.9 32.4424 101.787 32.4424C102.673 32.4424 103.395 32.8209 103.395 33.2862V48.9568C103.395 49.422 102.673 49.8006 101.787 49.8006C100.9 49.8006 100.179 49.422 100.179 48.9568Z" fill="#F0F0F0"/>
<path d="M96.3311 48.9568V33.2862C96.3311 32.8209 97.0524 32.4424 97.9391 32.4424C98.8258 32.4424 99.5472 32.8209 99.5472 33.2862V48.9568C99.5472 49.422 98.8258 49.8006 97.9391 49.8006C97.0524 49.8006 96.3311 49.422 96.3311 48.9568Z" fill="#F0F0F0"/>
<path d="M92.4834 48.9568V33.2862C92.4834 32.8209 93.2048 32.4424 94.0915 32.4424C94.9781 32.4424 95.6995 32.8209 95.6995 33.2862V48.9568C95.6995 49.422 94.9781 49.8006 94.0915 49.8006C93.2048 49.8006 92.4834 49.422 92.4834 48.9568Z" fill="#F0F0F0"/>
<path d="M124.854 37.4325C124.847 37.3849 124.83 37.3393 124.804 37.2987C124.778 37.2581 124.743 37.2234 124.703 37.1969L112.58 29.2135C112.763 29.1374 112.915 29.0039 113.015 28.8333C113.136 28.6226 113.169 28.3726 113.106 28.138C113.043 27.9034 112.889 27.7033 112.679 27.5812L111.684 27.0083C111.473 26.8875 111.222 26.8549 110.987 26.9178C110.752 26.9807 110.551 27.1338 110.429 27.3438C110.363 27.4592 110.323 27.5878 110.312 27.7203L101.561 21.9575C101.268 21.2475 100.822 20.61 100.256 20.0893C99.6897 19.5686 99.0165 19.1774 98.2833 18.9428V16.4019H95.0671V18.9428C94.0001 19.2831 93.0691 19.9529 92.4085 20.8554C91.7478 21.7578 91.3917 22.8464 91.3916 23.9638V24.6513H94.6077C94.6077 25.1983 94.8255 25.7228 95.2133 26.1096C95.601 26.4964 96.1269 26.7136 96.6752 26.7136C97.2235 26.7136 97.7494 26.4964 98.1371 26.1096C98.5249 25.7228 98.7427 25.1983 98.7427 24.6513H101.959V23.9638C101.958 23.6343 101.927 23.3055 101.866 22.9817L124.004 37.5603L114.808 48.7131C114.736 48.7128 114.665 48.7121 114.593 48.7121C113.86 48.7121 113.149 48.7294 112.471 48.7592C112.512 48.646 112.53 48.5257 112.524 48.4055C112.511 48.163 112.402 47.9356 112.221 47.773C112.04 47.6104 111.802 47.5259 111.559 47.5378L110.412 47.5974C110.168 47.6108 109.94 47.7196 109.777 47.9C109.614 48.0804 109.53 48.3179 109.542 48.5605C109.55 48.7038 109.593 48.843 109.666 48.9665C107.638 49.1815 106.324 49.4779 106.324 49.6287C106.324 49.8758 109.853 49.6406 114.27 49.6293C114.29 49.6866 114.326 49.7375 114.372 49.7767C114.418 49.816 114.475 49.8422 114.535 49.8527C114.595 49.8632 114.656 49.8576 114.713 49.8365C114.771 49.8153 114.821 49.7794 114.86 49.7325L114.945 49.6293C119.349 49.6416 122.863 49.8753 122.863 49.6287C122.863 49.3962 119.739 48.8179 115.69 48.7252L124.779 37.702C124.81 37.6648 124.832 37.6216 124.845 37.5752C124.858 37.5287 124.861 37.4801 124.854 37.4325Z" fill="#CCCCCC"/>
<path d="M125.186 105.656H96.8802C96.3082 105.655 95.7598 105.428 95.3553 105.025C94.9508 104.621 94.7234 104.074 94.7227 103.504V57.1659C94.7221 56.656 94.5188 56.1673 94.1574 55.8068C93.796 55.4463 93.306 55.2435 92.7949 55.2429H26.5855C26.0744 55.2435 25.5843 55.4463 25.2229 55.8068C24.8615 56.1673 24.6582 56.656 24.6576 57.1659V103.504C24.657 104.074 24.4294 104.621 24.025 105.025C23.6205 105.428 23.0721 105.655 22.5001 105.656H21.5316C20.9596 105.655 20.4111 105.428 20.0067 105.025C19.6022 104.621 19.3747 104.074 19.374 103.504V54.6701C19.3756 53.3031 19.9206 51.9926 20.8896 51.026C21.8586 50.0594 23.1724 49.5157 24.5428 49.5142H122.174C123.545 49.5157 124.859 50.0594 125.828 51.026C126.797 51.9926 127.342 53.3031 127.343 54.6701V103.504C127.343 104.074 127.115 104.621 126.71 105.025C126.306 105.428 125.758 105.655 125.186 105.656Z" fill="#E4E4E4"/>
<path d="M127.229 61.5449H94.8379V62.9198H127.229V61.5449Z" fill="white"/>
<path d="M127.229 80.106H94.8379V81.4809H127.229V80.106Z" fill="white"/>
<path d="M68.0257 49.2879L67.0947 48.8969L66.4561 44.2417H57.9518L57.2595 48.8779L56.4267 49.2933C56.3868 49.3132 56.3549 49.3459 56.336 49.3861C56.3171 49.4264 56.3124 49.4718 56.3227 49.5151C56.3329 49.5583 56.3575 49.5968 56.3924 49.6244C56.4273 49.652 56.4706 49.667 56.5151 49.667H67.9489C67.9946 49.667 68.0388 49.6513 68.0742 49.6224C68.1095 49.5936 68.1338 49.5534 68.1428 49.5088C68.1518 49.4641 68.1451 49.4177 68.1238 49.3775C68.1024 49.3372 68.0677 49.3056 68.0257 49.2879Z" fill="#E6E6E6"/>
<path d="M83.1386 44.8611H41.3629C41.1437 44.8606 40.9337 44.7734 40.7789 44.6186C40.6241 44.4638 40.5371 44.2541 40.5371 44.0355V38.1592H83.9644V44.0355C83.9644 44.2541 83.8775 44.4638 83.7227 44.6186C83.5679 44.7734 83.3578 44.8606 83.1386 44.8611Z" fill="#CCCCCC"/>
<path d="M84.0082 40.9365H40.499V15.7931C40.4993 15.5292 40.6045 15.2763 40.7916 15.0897C40.9786 14.9031 41.2322 14.7981 41.4968 14.7979H83.0104C83.2749 14.7981 83.5285 14.9031 83.7156 15.0897C83.9026 15.2763 84.0079 15.5292 84.0082 15.7931V40.9365Z" fill="#3F3D56"/>
<path d="M81.4092 39.1119H43.0973C42.8934 39.1117 42.6979 39.0308 42.5537 38.8869C42.4095 38.7431 42.3284 38.5481 42.3281 38.3446V17.3904C42.3284 17.1869 42.4095 16.9919 42.5537 16.848C42.6979 16.7042 42.8934 16.6233 43.0973 16.623H81.4092C81.6131 16.6233 81.8086 16.7042 81.9528 16.848C82.097 16.9919 82.1782 17.1869 82.1784 17.3904V38.3446C82.1782 38.5481 82.097 38.7431 81.9528 38.8869C81.8086 39.0308 81.6131 39.1117 81.4092 39.1119Z" fill="white"/>
<path d="M124.358 19.0283C124.724 18.9756 125.098 19.0037 125.452 19.1107C125.807 19.2176 126.133 19.4007 126.409 19.6472C126.685 19.8937 126.903 20.1975 127.049 20.5372C127.194 20.8769 127.263 21.2442 127.25 21.6134L135.65 24.8386L131.845 27.5508L124.451 24.0723C123.831 24.0105 123.255 23.7238 122.833 23.2666C122.41 22.8094 122.17 22.2135 122.159 21.5917C122.147 20.97 122.365 20.3656 122.77 19.8932C123.175 19.4207 123.74 19.113 124.358 19.0283Z" fill="#9E616A"/>
<path d="M156.252 17.4453L157.673 20.0225C157.329 21.6571 156.442 23.1278 155.154 24.1955C152.979 26.0259 141.603 32.8429 141.603 32.8429L127.241 25.6509L129.754 22.3207L141.029 26.09C145.211 22.1501 150.259 19.2395 155.769 17.5899L156.252 17.4453Z" fill="#E4E4E4"/>
<path d="M153.609 60.0913C159.799 60.0913 164.817 58.4602 164.817 56.4482C164.817 54.4362 159.799 52.8052 153.609 52.8052C147.418 52.8052 142.4 54.4362 142.4 56.4482C142.4 58.4602 147.418 60.0913 153.609 60.0913Z" fill="#CACACA"/>
<path d="M128.465 102.455L125.488 101.634L127.245 89.792L131.638 91.0035L128.465 102.455Z" fill="#9E616A"/>
<path d="M128.426 105.542L118.829 102.895L118.863 102.774C119.137 101.786 119.793 100.947 120.687 100.441C121.581 99.9357 122.64 99.8051 123.63 100.078L123.631 100.078L129.492 101.694L128.426 105.542Z" fill="#2F2E41"/>
<path d="M119.835 102.493L117.01 101.249L120.477 89.7886L124.646 91.6248L119.835 102.493Z" fill="#9E616A"/>
<path d="M119.346 105.542L110.238 101.53L110.289 101.415C110.704 100.477 111.476 99.7423 112.434 99.3719C113.393 99.0015 114.459 99.0261 115.4 99.4401L115.4 99.4402L120.963 101.891L119.346 105.542Z" fill="#2F2E41"/>
<path d="M162.332 47.541C162.332 47.541 163.829 52.1683 154.643 58.0201L142.812 69.7799L130.519 99.1125L123.221 95.8487L124.652 92.0375L125.613 89.4801L126.104 88.1717L126.631 86.7691L134.444 65.9653L141.007 54.5024L141.197 48.2825L142.812 43.898L154.524 39.7524L162.332 47.541Z" fill="#2F2E41"/>
<path d="M156.359 47.7705C156.359 47.7705 157.856 52.3978 148.67 58.2496L136.839 70.0093L124.546 99.342L117.248 96.0782L118.679 92.267L119.64 89.7096L120.131 88.4012L120.658 86.9986L128.471 66.1948L130.669 62.3567C133.568 57.2934 137.091 52.6118 141.155 48.4209L143.309 46.1995L143.539 42.7623L148.551 39.9819L156.359 47.7705Z" fill="#2F2E41"/>
<path d="M149.281 25.1175L152.957 17.3264L159.371 16.4536C159.371 16.4536 164.38 22.8187 163.065 31.7629C162.572 35.117 162.17 38.4562 162.146 41.3872C162.139 42.1671 162.823 42.5154 162.835 43.2204C162.846 43.9131 161.539 45.0413 161.916 45.5119C162.456 46.1607 162.777 46.9624 162.835 47.8035C162.38 48.8842 148.602 43.0293 142.812 43.8982L149.281 25.1175Z" fill="#E4E4E4"/>
<path d="M158.392 12.5314C160.03 9.78405 159.124 6.23293 156.37 4.59977C153.616 2.96662 150.056 3.86987 148.419 6.61724C146.781 9.36461 147.687 12.9157 150.441 14.5489C153.195 16.182 156.755 15.2788 158.392 12.5314Z" fill="#9E616A"/>
<path d="M157.115 7.4962C157.104 7.64848 157.088 7.85016 157.071 8.07832C157.053 8.70291 157.229 9.31774 157.576 9.83818C157.9 10.3857 157.513 13.6927 157.513 13.6927C167.016 7.08481 159.507 0.446169 156.57 1.0363C156.631 0.195973 154.236 0.52887 154.236 0.52887C153.323 -0.889074 151.322 0.99313 151.322 0.99313L151.708 0.345336C150.155 0.739411 148.62 5.52766 148.62 5.52766C149.147 7.59338 157.176 6.65588 157.115 7.4962Z" fill="#2F2E41"/>
<path d="M120.248 28.1823C123.514 23.8493 126.096 19.0433 127.904 13.9311C128.008 13.6254 128.001 13.2924 127.883 12.9916C127.764 12.6908 127.543 12.4416 127.258 12.2884L116.083 6.31552C115.902 6.21816 115.701 6.16323 115.496 6.15492C115.291 6.1466 115.086 6.18513 114.898 6.26755C114.706 6.3506 114.536 6.47617 114.401 6.63468C114.265 6.79319 114.168 6.98047 114.115 7.18228C112.815 12.1085 110.37 16.6601 106.979 20.4689C106.839 20.6239 106.737 20.8086 106.679 21.0091C106.622 21.2095 106.612 21.4203 106.648 21.6254C106.684 21.8273 106.765 22.0185 106.886 22.1844C107.006 22.3503 107.163 22.4865 107.345 22.5827L118.519 28.5556C118.805 28.7076 119.136 28.7536 119.453 28.6852C119.769 28.6168 120.051 28.4386 120.248 28.1823Z" fill="#CCCCCC"/>
<path d="M119.486 27.6109C119.426 27.6857 119.342 27.7373 119.247 27.7567C119.153 27.7761 119.055 27.7621 118.97 27.7171L107.795 21.7441C107.741 21.7159 107.694 21.6755 107.658 21.6262C107.622 21.5768 107.598 21.5198 107.588 21.4596C107.576 21.3961 107.58 21.3307 107.597 21.2686C107.615 21.2066 107.647 21.1495 107.691 21.1019C111.183 17.1809 113.699 12.4951 115.038 7.4238C115.054 7.36114 115.084 7.30291 115.126 7.25366C115.167 7.20441 115.22 7.16549 115.279 7.13993C115.335 7.11496 115.396 7.10328 115.458 7.10581C115.519 7.10833 115.579 7.125 115.632 7.15449L126.807 13.1273C126.892 13.1729 126.958 13.2466 126.994 13.3356C127.03 13.4247 127.033 13.5234 127.004 13.6148C125.229 18.6355 122.693 23.3554 119.486 27.6109Z" fill="white"/>
<path d="M115.577 12.8291L123.284 17.3356C124.051 17.784 124.746 16.5961 123.98 16.1484L116.272 11.6419C115.505 11.1935 114.811 12.3814 115.577 12.8291Z" fill="#FF8B43"/>
<path d="M114.198 15.3496L121.905 19.8561C122.672 20.3045 123.367 19.1166 122.601 18.6689L114.893 14.1624C114.127 13.714 113.432 14.9019 114.198 15.3496Z" fill="#FF8B43"/>
<path d="M112.59 18.0996L120.298 22.6061C121.065 23.0545 121.759 21.8666 120.994 21.4189L113.286 16.9124C112.519 16.464 111.825 17.6519 112.59 18.0996Z" fill="#FF8B43"/>
<path d="M110.982 20.3911L118.69 24.8976C119.456 25.346 120.151 24.1581 119.385 23.7104L111.678 19.2039C110.911 18.7555 110.216 19.9434 110.982 20.3911Z" fill="#FF8B43"/>
<path d="M146.119 46.8988L149.013 53.3896C149.082 53.545 149.112 53.7153 149.099 53.885C149.087 54.0548 149.032 54.2188 148.939 54.362C148.831 54.5332 148.674 54.6685 148.488 54.7508C148.302 54.8332 148.097 54.8589 147.896 54.8247C147.828 54.8143 147.761 54.7965 147.697 54.7716C147.441 54.6731 147.235 54.4775 147.123 54.2276L144.23 47.7368C144.175 47.6131 144.144 47.4797 144.141 47.3443C144.137 47.209 144.161 47.0742 144.209 46.9478C144.308 46.6926 144.504 46.4867 144.754 46.3756C145.005 46.2645 145.289 46.2572 145.545 46.3553C145.801 46.4534 146.008 46.6489 146.119 46.8988Z" fill="#FF8B43"/>
<path d="M148.779 52.8662L149.358 54.1762L149.655 56.0335C149.674 56.1557 149.653 56.281 149.594 56.3899C149.535 56.4987 149.441 56.585 149.328 56.6353C149.214 56.6856 149.087 56.6971 148.967 56.6681C148.846 56.639 148.738 56.5709 148.661 56.4745L147.461 54.9857L146.89 53.7042L148.779 52.8662Z" fill="#3F3D56"/>
<path d="M143.587 45.0931L144.002 47.6917C144.015 47.7768 144.048 47.8576 144.098 47.928C144.148 47.9983 144.213 48.0563 144.289 48.0974C144.365 48.1385 144.45 48.1616 144.536 48.165C144.622 48.1684 144.708 48.1519 144.787 48.1169L145.198 47.9346L145.992 49.7143C146.016 49.7697 146.062 49.8131 146.119 49.8348C146.176 49.8566 146.239 49.8549 146.295 49.8302C146.35 49.8056 146.394 49.7599 146.416 49.7032C146.438 49.6466 146.436 49.5836 146.411 49.5281L145.618 47.7483L146.029 47.566C146.165 47.5054 146.272 47.3935 146.326 47.2547C146.38 47.1159 146.376 46.9615 146.316 46.8253C146.296 46.7802 146.27 46.7379 146.239 46.6995L144.582 44.6519C144.504 44.5555 144.396 44.4876 144.276 44.4585C144.155 44.4295 144.028 44.441 143.915 44.4914C143.801 44.5417 143.708 44.6279 143.648 44.7368C143.589 44.8456 143.568 44.9709 143.587 45.0931Z" fill="#3F3D56"/>
<path d="M144.787 49.7835C144.852 49.4199 144.996 49.075 145.21 48.7731C145.423 48.4711 145.7 48.2195 146.021 48.036C146.343 47.8524 146.7 47.7414 147.069 47.7107C147.438 47.68 147.81 47.7303 148.157 47.8582L153.869 40.9199L155.253 45.3768L149.616 51.2822C149.362 51.8501 148.908 52.3052 148.34 52.5615C147.772 52.8177 147.129 52.8572 146.534 52.6725C145.939 52.4877 145.432 52.0916 145.11 51.5591C144.788 51.0267 144.673 50.3949 144.787 49.7835Z" fill="#9E616A"/>
<path d="M151.979 49.3328L149.463 45.7077L156.607 36.2059L152.927 28.3392L153.195 18.9818L156.236 18.4214L156.274 18.4403C157.752 19.2892 158.895 20.6172 159.513 22.2036C160.271 24.0955 161.965 31.1978 162.907 35.2629C163.092 36.0507 163.072 36.8726 162.848 37.6503C162.625 38.4281 162.205 39.1357 161.63 39.7059L151.979 49.3328Z" fill="#E4E4E4"/>
<path d="M81.141 31.8166C81.1201 31.9927 81.1131 32.1701 81.1201 32.3473L68.239 41.6952L64.7002 40.133L61.6387 45.1522L67.6339 48.5251C68.1182 48.7976 68.6781 48.906 69.2295 48.834C69.7808 48.7621 70.2939 48.5137 70.6917 48.1261L83.6562 35.4946C84.3198 35.6628 85.019 35.6255 85.6608 35.3876C86.3026 35.1497 86.8566 34.7226 87.2491 34.1629C87.6416 33.6033 87.854 32.9378 87.8581 32.2548C87.8622 31.5718 87.6577 30.9038 87.2718 30.3396C86.886 29.7754 86.3371 29.3417 85.6982 29.0963C85.0592 28.8508 84.3605 28.8052 83.6949 28.9656C83.0294 29.1259 82.4286 29.4846 81.9723 29.9939C81.5161 30.5031 81.2261 31.1389 81.141 31.8166Z" fill="#FFB6B6"/>
<path d="M67.8222 42.037L64.0659 48.2809C63.959 48.4585 63.815 48.6111 63.6436 48.7282C63.4723 48.8454 63.2777 48.9243 63.073 48.9596C62.8684 48.995 62.6585 48.9859 62.4576 48.933C62.2568 48.8801 62.0698 48.7847 61.9092 48.6532L56.2849 44.0456C55.377 43.4949 54.7251 42.6075 54.472 41.5781C54.2189 40.5486 54.3853 39.4611 54.9347 38.5538C55.4842 37.6466 56.3718 36.9937 57.4031 36.7382C58.4343 36.4827 59.5251 36.6455 60.4362 37.1909L67.1371 39.9635C67.3289 40.0429 67.5013 40.1627 67.6426 40.3146C67.7838 40.4665 67.8906 40.6469 67.9556 40.8437C68.0206 41.0405 68.0424 41.2489 68.0194 41.4549C67.9964 41.6608 67.9291 41.8593 67.8222 42.037Z" fill="#FF8B43"/>
<path d="M51.7277 96.3081H59.0908V84.1367H51.7277V96.3081Z" fill="#CACACA"/>
<path d="M58.7214 90.5771L57.7764 91.9663L75.448 103.928L76.393 102.539L58.7214 90.5771Z" fill="#CACACA"/>
<path d="M52.0964 90.577L34.4248 102.539L35.3699 103.928L53.0414 91.9662L52.0964 90.577Z" fill="#CACACA"/>
<path d="M75.9206 105.542C77.1986 105.542 78.2347 104.508 78.2347 103.233C78.2347 101.958 77.1986 100.925 75.9206 100.925C74.6425 100.925 73.6064 101.958 73.6064 103.233C73.6064 104.508 74.6425 105.542 75.9206 105.542Z" fill="#CACACA"/>
<path d="M55.3034 105.542C56.5815 105.542 57.6175 104.508 57.6175 103.233C57.6175 101.958 56.5815 100.925 55.3034 100.925C54.0253 100.925 52.9893 101.958 52.9893 103.233C52.9893 104.508 54.0253 105.542 55.3034 105.542Z" fill="#CACACA"/>
<path d="M34.8971 105.542C36.1752 105.542 37.2113 104.508 37.2113 103.233C37.2113 101.958 36.1752 100.925 34.8971 100.925C33.6191 100.925 32.583 101.958 32.583 103.233C32.583 104.508 33.6191 105.542 34.8971 105.542Z" fill="#CACACA"/>
<path d="M56.1449 91.2715H54.4619V103.233H56.1449V91.2715Z" fill="#CACACA"/>
<path d="M53.8307 89.5928H56.9863V73.4341H53.8307V89.5928Z" fill="#CACACA"/>
<path d="M46.3633 75.9523V72.1749C46.3641 71.4795 46.6414 70.8127 47.1344 70.3209C47.6274 69.8292 48.2958 69.5525 48.993 69.5518H63.0881C63.7853 69.5525 64.4537 69.8292 64.9467 70.3209C65.4397 70.8127 65.717 71.4795 65.7178 72.1749V75.9523C65.717 76.6477 65.4397 77.3145 64.9467 77.8063C64.4537 78.298 63.7853 78.5746 63.0881 78.5754H48.993C48.2958 78.5746 47.6274 78.298 47.1344 77.8063C46.6414 77.3145 46.3641 76.6477 46.3633 75.9523Z" fill="#3F3D56"/>
<path d="M71.8208 101.772L75.7187 101.772L77.5735 91.687L71.8203 91.6872L71.8208 101.772Z" fill="#FFB8B8"/>
<path d="M70.8264 105.542L83.3956 105.541V105.383C83.3957 104.742 83.2691 104.107 83.0233 103.515C82.7774 102.923 82.4171 102.385 81.9628 101.932C81.5085 101.479 80.9692 101.119 80.3757 100.874C79.7821 100.629 79.146 100.502 78.5035 100.502H78.503L70.8262 100.503L70.8264 105.542Z" fill="#2F2E41"/>
<path d="M77.6507 95.5185L85.422 78.135C86.0708 76.6699 86.1425 75.0147 85.6229 73.4991C85.1033 71.9836 84.0304 70.7189 82.618 69.957L65.7617 60.9405L58.0698 60.2879L50.9746 59.6445L50.9234 59.7309C50.858 59.8412 49.3324 62.4697 50.3636 65.3518C51.1458 67.5379 53.1804 69.2455 56.4109 70.4272C63.9512 73.1851 72.6617 75.5422 76.0567 76.4274C76.2067 76.4657 76.3469 76.5352 76.4681 76.6314C76.5893 76.7276 76.6887 76.8483 76.7597 76.9856C76.831 77.1213 76.8733 77.2702 76.8841 77.4229C76.8948 77.5757 76.8737 77.7291 76.8221 77.8733L69.6023 94.0538C69.5269 94.259 69.4998 94.4787 69.5229 94.6961C69.5461 94.9134 69.6191 95.1225 69.7361 95.3073C69.8531 95.492 70.0111 95.6475 70.198 95.7618C70.3848 95.876 70.5954 95.9459 70.8135 95.9661L76.2083 96.3579C76.2541 96.3622 76.2997 96.3644 76.345 96.3644C76.6213 96.3643 76.8917 96.2844 77.1234 96.1342C77.3551 95.9841 77.5382 95.7703 77.6507 95.5185Z" fill="#2F2E41"/>
<path d="M69.2768 101.772L73.1747 101.772L75.0295 91.687L69.2764 91.6872L69.2768 101.772Z" fill="#FFB8B8"/>
<path d="M68.2825 105.542L80.8517 105.541V105.383C80.8517 104.742 80.7252 104.107 80.4793 103.515C80.2335 102.923 79.8731 102.385 79.4189 101.932C78.9646 101.479 78.4253 101.119 77.8317 100.874C77.2382 100.629 76.602 100.502 75.9596 100.502H75.9591L68.2822 100.503L68.2825 105.542Z" fill="#2F2E41"/>
<path d="M74.7894 96.4702L82.5607 79.0867C83.2095 77.6215 83.2812 75.9663 82.7616 74.4508C82.242 72.9352 81.1691 71.6706 79.7567 70.9086L62.9004 61.8921L55.2085 61.2395L49.6512 60.7587L49.6519 60.6826C49.5865 60.7929 48.0609 63.4213 49.0921 66.3035C49.8743 68.4896 50.3191 70.1972 53.5496 71.3788C61.0899 74.1368 69.8004 76.4939 73.1954 77.3791C73.3454 77.4174 73.4856 77.4869 73.6068 77.5831C73.728 77.6793 73.8274 77.8 73.8984 77.9373C73.9697 78.0729 74.012 78.2218 74.0228 78.3746C74.0335 78.5274 74.0124 78.6807 73.9608 78.825L66.741 95.0054C66.6656 95.2106 66.6385 95.4304 66.6617 95.6477C66.6849 95.865 66.7578 96.0742 66.8748 96.2589C66.9918 96.4437 67.1498 96.5992 67.3367 96.7134C67.5235 96.8276 67.7341 96.8976 67.9522 96.9177L73.347 97.3096C73.3928 97.3139 73.4384 97.3161 73.4837 97.3161C73.76 97.316 74.0304 97.236 74.2621 97.0859C74.4938 96.9358 74.6769 96.7219 74.7894 96.4702Z" fill="#2F2E41"/>
<path d="M69.9141 21.5948C70.912 17.4092 68.3194 13.2091 64.1234 12.2137C59.9273 11.2183 55.7168 13.8045 54.7189 17.9901C53.7211 22.1757 56.3137 26.3758 60.5097 27.3712C64.7058 28.3666 68.9162 25.7804 69.9141 21.5948Z" fill="#FFB8B8"/>
<path d="M89.2358 49.7223C92.5014 45.3893 95.083 40.5833 96.8909 35.4712C96.9956 35.1654 96.9881 34.8325 96.8698 34.5316C96.7515 34.2308 96.53 33.9816 96.2448 33.8284L85.0699 27.8556C84.8891 27.7582 84.6885 27.7033 84.4832 27.695C84.2779 27.6866 84.0734 27.7252 83.8853 27.8076C83.6937 27.8906 83.5237 28.0162 83.388 28.1747C83.2524 28.3332 83.1548 28.5205 83.1027 28.7223C81.8021 33.6485 79.3572 38.2001 75.9659 42.0089C75.8263 42.1639 75.7239 42.3487 75.6667 42.5491C75.6095 42.7495 75.5989 42.9604 75.6357 43.1655C75.6711 43.3674 75.7522 43.5585 75.8729 43.7244C75.9935 43.8903 76.1505 44.0265 76.3319 44.1227L87.5068 50.0956C87.7926 50.2477 88.1233 50.2936 88.4399 50.2252C88.7565 50.1569 89.0386 49.9787 89.2358 49.7223Z" fill="#CCCCCC"/>
<path d="M88.4734 49.1509C88.4133 49.2257 88.3289 49.2773 88.2347 49.2967C88.1406 49.3161 88.0426 49.3021 87.9577 49.2572L76.7827 43.2842C76.7284 43.2559 76.6815 43.2156 76.6455 43.1662C76.6095 43.1168 76.5854 43.0598 76.5752 42.9997C76.5635 42.9361 76.5668 42.8707 76.5847 42.8087C76.6027 42.7466 76.6348 42.6895 76.6785 42.6419C80.1698 38.7209 82.6867 34.0352 84.0257 28.9638C84.0412 28.9012 84.071 28.8429 84.1128 28.7937C84.1546 28.7445 84.2073 28.7055 84.2667 28.68C84.3227 28.655 84.3837 28.6433 84.445 28.6458C84.5062 28.6484 84.5661 28.665 84.6198 28.6945L95.7945 34.6674C95.8791 34.713 95.9451 34.7867 95.9811 34.8757C96.0171 34.9647 96.0208 35.0635 95.9915 35.1549C94.216 40.1755 91.6806 44.8955 88.4734 49.1509Z" fill="white"/>
<path d="M84.5639 34.3691L92.2716 38.8756C93.0385 39.324 93.7329 38.1361 92.9673 37.6885L85.2596 33.1819C84.4927 32.7336 83.7983 33.9215 84.5639 34.3691Z" fill="#CCCCCC"/>
<path d="M83.186 36.8901L90.8937 41.3966C91.6605 41.845 92.355 40.6571 91.5893 40.2095L83.8817 35.7029C83.1148 35.2546 82.4203 36.4425 83.186 36.8901Z" fill="#CCCCCC"/>
<path d="M82.1027 39.4007L89.1124 43.5517C89.8098 43.9647 90.5557 43.1108 89.8594 42.6985L82.8497 38.5475C82.1522 38.1345 81.4063 38.9883 82.1027 39.4007Z" fill="#CCCCCC"/>
<path d="M79.9692 41.9311L87.6769 46.4377C88.4437 46.886 89.1382 45.6981 88.3725 45.2505L80.6649 40.7439C79.898 40.2956 79.2035 41.4835 79.9692 41.9311Z" fill="#CCCCCC"/>
<path d="M66.8194 61.5716L51.3651 61.4794L51.3609 61.3698C51.0663 53.635 52.0139 46.6285 54.2581 39.95C54.2898 39.7 54.3241 39.4328 54.3577 39.1706C54.7411 36.1827 55.0454 33.8104 57.8938 32.9269C57.6565 32.6121 57.5166 32.235 57.4913 31.842C57.4734 31.5808 57.5077 31.3186 57.5923 31.0708C57.6769 30.823 57.8101 30.5944 57.9841 30.3984C58.1506 30.2091 58.3532 30.0547 58.5801 29.9443C58.8069 29.8339 59.0536 29.7696 59.3056 29.7552L64.8064 29.5684C65.0954 29.5664 65.3767 29.6616 65.605 29.8385C66.0238 30.1488 66.3181 30.5977 66.4353 31.1048C66.5525 31.6119 66.4848 32.1441 66.2445 32.606C66.1797 32.7347 66.1549 32.7933 66.1454 32.8188C66.341 33.8408 66.9213 35.0548 67.5352 36.3395C68.4144 38.179 69.4108 40.2637 69.667 42.4942C69.8054 43.6984 69.7479 44.9171 69.4968 46.103C69.3821 46.7421 69.3557 47.3939 69.4183 48.0401C69.4685 48.9983 69.5159 49.9031 68.973 50.778C68.8346 51.0152 68.6762 51.2681 68.4904 51.5483L67.7266 53.3696L66.8194 61.5716Z" fill="#FF8B43"/>
<path d="M43.6279 72.3959V40.8964C43.6291 39.87 44.0384 38.8859 44.766 38.1601C45.4936 37.4343 46.4801 37.0261 47.5091 37.0249H48.5825C49.6115 37.0261 50.5981 37.4343 51.3257 38.1601C52.0533 38.8859 52.4625 39.87 52.4637 40.8964V72.3959C52.4625 73.4223 52.0533 74.4064 51.3257 75.1322C50.5981 75.858 49.6115 76.2662 48.5825 76.2674H47.5091C46.4801 76.2662 45.4936 75.858 44.766 75.1322C44.0384 74.4064 43.6291 73.4223 43.6279 72.3959Z" fill="#3F3D56"/>
<path d="M85.071 44.0401C84.96 44.1786 84.8602 44.3256 84.7725 44.4798L68.8854 45.6369L66.7065 42.4468L61.4502 45.0977L64.7573 51.1192C65.0245 51.6056 65.4427 51.9925 65.949 52.2217C66.4554 52.4509 67.0226 52.5101 67.5656 52.3904L85.2609 48.4882C85.7356 48.9805 86.3492 49.317 87.0202 49.4529C87.6911 49.5888 88.3877 49.5177 89.0172 49.2491C89.6467 48.9804 90.1793 48.527 90.5442 47.9491C90.909 47.3711 91.0888 46.6961 91.0597 46.0137C91.0306 45.3313 90.7939 44.674 90.3811 44.1291C89.9683 43.5842 89.3989 43.1776 88.7488 42.9633C88.0987 42.7491 87.3986 42.7373 86.7416 42.9297C86.0846 43.122 85.5019 43.5093 85.071 44.0401Z" fill="#FFB6B6"/>
<path d="M68.3501 45.7078L61.8556 49.0331C61.6708 49.1277 61.4677 49.1815 61.2602 49.1907C61.0527 49.2 60.8456 49.1646 60.6531 49.0868C60.4606 49.0091 60.2871 48.8908 60.1445 48.7402C60.0019 48.5895 59.8936 48.41 59.8268 48.2138L57.4881 41.3389C57.0086 40.3952 56.9232 39.3003 57.2507 38.294C57.5783 37.2876 58.292 36.4515 59.2358 35.9687C56.3569 37.4427 62.3528 33.2556 64.6412 37.7028L68.8654 43.5859C68.9863 43.7544 69.0693 43.9469 69.1089 44.1503C69.1485 44.3537 69.1437 44.5632 69.0948 44.7645C69.0459 44.9659 68.9541 45.1544 68.8255 45.3172C68.697 45.48 68.5349 45.6132 68.3501 45.7078Z" fill="#FF8B43"/>
<path d="M58.7887 27.3694C58.3186 27.3694 57.7999 27.1434 57.2152 26.6855C55.4945 25.3378 54.2646 23.4642 53.7142 21.3521C53.1637 19.24 53.3231 17.0061 54.1679 14.993C54.593 13.98 55.3882 12.6031 56.762 11.7961C57.7495 11.2163 58.9096 11.0068 59.9194 10.856C60.7937 10.7253 61.6789 10.6213 62.5505 10.5472C63.5919 10.4583 64.7948 10.3984 65.892 10.8141C66.6959 11.1189 67.3801 11.6571 68.0418 12.1776C68.2724 12.3589 68.5109 12.5466 68.7498 12.7203C69.3285 13.1707 69.9961 13.4941 70.7088 13.6694C70.8592 13.7005 71.0011 13.7634 71.125 13.8539C71.2489 13.9445 71.3519 14.0605 71.427 14.1941C71.5036 14.33 71.5501 14.4806 71.5633 14.6359C71.5765 14.7912 71.5562 14.9476 71.5037 15.0944C71.4005 15.3831 71.3073 15.6433 71.4958 15.9253C71.5656 16.0246 71.6588 16.1053 71.7672 16.1604C71.8755 16.2155 71.9958 16.2433 72.1174 16.2413C72.1816 16.2402 72.245 16.2552 72.3019 16.2848C72.3588 16.3144 72.4074 16.3578 72.4432 16.4109C72.4796 16.4635 72.5025 16.5243 72.5099 16.5878C72.5174 16.6513 72.5091 16.7156 72.4859 16.7752L72.4556 16.8529C72.5365 16.8604 72.6143 16.8874 72.6823 16.9315C72.7504 16.9757 72.8067 17.0357 72.8463 17.1064C72.9053 17.207 72.9281 17.3247 72.9109 17.44C72.8938 17.5554 72.8377 17.6614 72.7519 17.7406C72.055 18.4023 71.1862 18.8559 70.2439 19.0499C69.5991 19.1761 68.9357 19.1746 68.2915 19.0454L68.1878 19.0253L68.2006 18.9107C65.5946 17.9836 63.2423 19.557 61.9012 21.3558L61.7075 21.2338C61.7408 21.1668 61.7601 21.0937 61.7644 21.019C61.7686 20.9443 61.7576 20.8696 61.7321 20.7992C61.7051 20.7148 61.6617 20.6365 61.6043 20.5688C61.547 20.5012 61.4768 20.4455 61.3978 20.4049C61.2381 20.3392 61.0624 20.3221 60.893 20.3558C60.7236 20.3896 60.568 20.4726 60.4458 20.5944C60.3213 20.7245 60.2254 20.8791 60.1641 21.0482C60.1029 21.2173 60.0775 21.3972 60.0898 21.5766C60.125 21.9568 60.2221 22.3288 60.3773 22.6778C60.4403 22.8448 60.5056 23.0175 60.5586 23.1916C60.8554 24.1807 60.7763 25.2442 60.3363 26.1787C60.1333 26.605 59.7663 27.1485 59.1703 27.317C59.0461 27.352 58.9177 27.3696 58.7887 27.3694Z" fill="#2F2E41"/>
</g>
</svg>
