<svg width="101" height="99" viewBox="0 0 101 99" fill="none" xmlns="http://www.w3.org/2000/svg">
<path d="M23.2246 93.4697C28.2266 93.4697 31.3496 90.4229 31.3496 85.5605V83.2373H23.6562V86.0303H27.6172L27.6045 86.373C27.5283 88.6836 25.8018 90.2197 23.2881 90.2197C20.2666 90.2197 18.3496 87.7695 18.3496 83.7959V83.7705C18.3496 79.873 20.1777 77.4609 23.1357 77.4609C25.2812 77.4609 26.8428 78.54 27.3633 80.3555L27.3887 80.4824H31.1973L31.1719 80.3555C30.626 76.6992 27.4648 74.2109 23.1357 74.2109C17.8037 74.2109 14.4395 77.9307 14.4395 83.8086V83.834C14.4395 89.8008 17.7783 93.4697 23.2246 93.4697ZM41.222 93.4697C46.6302 93.4697 50.0325 89.7627 50.0325 83.8467V83.8213C50.0325 77.9053 46.6175 74.2109 41.222 74.2109C35.8265 74.2109 32.3988 77.8926 32.3988 83.8213V83.8467C32.3988 89.7627 35.7757 93.4697 41.222 93.4697ZM41.222 90.2197C38.2005 90.2197 36.3089 87.7188 36.3089 83.8467V83.8213C36.3089 79.9365 38.2386 77.4609 41.222 77.4609C44.1927 77.4609 46.1224 79.9365 46.1224 83.8213V83.8467C46.1224 87.7188 44.2054 90.2197 41.222 90.2197ZM51.8561 93H55.2711V80.5332H55.525L60.2223 93H62.6217L67.319 80.5332H67.5729V93H70.9879V74.6807H66.5954L61.5426 88.0869H61.3141L56.2487 74.6807H51.8561V93ZM80.1748 93.4697C84.7451 93.4697 87.5634 91.1719 87.5634 87.541V87.5283C87.5634 84.6719 85.875 83.123 82.0029 82.3232L80.0605 81.9297C77.9023 81.4854 77.0136 80.7744 77.0136 79.5811V79.5684C77.0136 78.1973 78.2705 77.334 80.1621 77.3213C82.0918 77.3213 83.3613 78.2354 83.5771 79.543L83.6025 79.6953H87.208L87.1953 79.5303C86.9541 76.4707 84.4404 74.2109 80.1621 74.2109C76.0996 74.2109 73.1796 76.458 73.1796 79.8604V79.873C73.1796 82.6533 74.8173 84.4307 78.6259 85.2051L80.5556 85.5986C82.8281 86.0684 83.7295 86.7412 83.7295 87.9473V87.96C83.7295 89.3691 82.3203 90.3467 80.2763 90.3467C78.1308 90.3467 76.6455 89.4199 76.5058 88.0488L76.4931 87.9219H72.7988L72.8115 88.125C73.0273 91.375 75.7949 93.4697 80.1748 93.4697Z" fill="#FF731D"/>
<path d="M38.7994 17.7979L49.5193 20.014L58.4353 18.0556L64.9291 18.0556L66.9906 18.3648L70.959 19.5502L73.0721 20.1687L74.309 20.684L76.3705 21.7663L79.7205 25.0132L82.3489 28.157L83.3281 29.9609L84.3589 32.2801L85.3381 34.3416L85.6989 35.9393L86.575 41.5053L86.9873 47.123L87.245 51.1429L90.3373 56.8121L90.4403 57.3275L90.4919 58.6159L89.5127 61.2444L88.6365 62.3267L87.3996 63.7697L86.7812 64.4913L85.8191 65.2128L83.6545 66.4497L83.2766 66.4497L82.6066 66.3466L81.9366 66.192L81.4727 65.8828L81.1635 65.4189L81.0604 63.6151L81.2666 61.8113L81.9366 60.2651L79.9266 58.1006L78.3805 56.3998L77.762 55.5237L76.319 54.7506L66.9906 50.7306L65.7537 50.6791L64.7229 50.8852L61.0122 51.8129L57.4045 52.1222L53.5907 51.5552L53.1269 51.7614L53.7969 62.842L53.5907 64.2336L52.6631 65.9859L51.5292 67.2228L50.6015 67.7897L49.6223 68.1504L46.9939 68.3566L44.6231 68.3051L43.747 67.9958L42.9739 67.4805L42.7162 66.862L42.6132 66.2435L42.8193 65.4705L43.077 64.8005L44.417 63.6666L45.6024 62.739L41.3762 53.7198L39.727 52.3798L28.1825 47.6384L26.4818 46.4014L25.451 44.8553L21.3795 44.9068L19.7819 44.9068L18.3903 44.7007L17.0504 44.0307L16.535 43.9792L10.4535 44.443L8.9589 44.0417L7.052 42.5361L6.48509 42.0207L5.71201 41.0415L4.78433 39.5984L4.73279 39.2892L4.78433 38.8254L4.93895 38.4646L5.71202 37.7946L8.39199 35.8877L8.9589 31.507L9.83505 30.4247L13.0304 27.5901L13.185 23.7248L13.3396 23.0032L13.6489 22.3848L14.3704 21.8179L15.0404 21.6633L15.8134 21.8179L16.9988 23.0032L17.308 23.0032L17.6688 22.8486L18.1842 20.9417L18.2873 20.581L18.6996 20.2717L19.4807 20.0998L20.4003 20.3748L23.7503 22.5394L25.2964 22.4879L33.594 18.2618L37.0471 17.6948L38.7994 17.7979Z" fill="#FF731D"/>
<path d="M26.8946 48.2051L38.8514 53.2043L31.1722 63.6665L27.4099 66.5526L24.9877 67.0164L19.6277 67.4287L17.927 67.3256L16.7416 67.0164L16.2262 66.5526L15.917 65.4703L16.2262 64.3364L17.927 63.048L21.6892 61.5019L24.833 56.6573L26.8946 48.2051Z" fill="#FF731D"/>
<path d="M66.2706 51.5552L76.6297 55.9874L74.8259 57.7913L70.8575 64.2335L70.2906 65.0066L69.6206 65.5735L67.8168 66.8104L66.786 67.1712L61.3745 67.3773L60.0345 67.0165L59.5192 66.7073L58.8492 66.2435L58.7461 65.8312V65.1612L59.1069 63.9758L60.4468 62.6874L64.3637 60.9351L66.4252 56.3997L66.2706 51.5552Z" fill="#FF731D"/>
</svg>
