<svg width="18" height="19" viewBox="0 0 18 19" fill="none" xmlns="http://www.w3.org/2000/svg">
<path d="M0.962576 6.59935C1.43128 6.59935 1.6789 6.33404 1.6789 5.87418V3.78711C1.6789 2.86739 2.16529 2.39868 3.04964 2.39868H5.18977C5.65848 2.39868 5.91494 2.14222 5.91494 1.68236C5.91494 1.2225 5.65848 0.974877 5.18977 0.974877H3.03196C1.18366 0.974877 0.255095 1.88576 0.255095 3.70752V5.87418C0.255095 6.33404 0.511557 6.59935 0.962576 6.59935ZM16.8544 6.59935C17.3231 6.59935 17.5707 6.33404 17.5707 5.87418V3.70752C17.5707 1.88576 16.6421 0.974877 14.7938 0.974877H12.6272C12.1673 0.974877 11.9108 1.2225 11.9108 1.68236C11.9108 2.14222 12.1673 2.39868 12.6272 2.39868H14.7673C15.6428 2.39868 16.1469 2.86739 16.1469 3.78711V5.87418C16.1469 6.33404 16.4033 6.59935 16.8544 6.59935ZM3.03196 18.2816H5.18977C5.65848 18.2816 5.91494 18.0252 5.91494 17.5741C5.91494 17.1143 5.65848 16.8578 5.18977 16.8578H3.04964C2.16529 16.8578 1.6789 16.3891 1.6789 15.4694V13.3823C1.6789 12.9136 1.42244 12.6572 0.962576 12.6572C0.502713 12.6572 0.255095 12.9136 0.255095 13.3823V15.5401C0.255095 17.3707 1.18366 18.2816 3.03196 18.2816ZM12.6272 18.2816H14.7938C16.6421 18.2816 17.5707 17.3619 17.5707 15.5401V13.3823C17.5707 12.9136 17.3142 12.6572 16.8544 12.6572C16.3945 12.6572 16.1469 12.9136 16.1469 13.3823V15.4694C16.1469 16.3891 15.6428 16.8578 14.7673 16.8578H12.6272C12.1673 16.8578 11.9108 17.1143 11.9108 17.5741C11.9108 18.0252 12.1673 18.2816 12.6272 18.2816Z" fill="#FF8B43"/>
</svg>
