<svg width="127" height="103" viewBox="0 0 127 103" fill="none" xmlns="http://www.w3.org/2000/svg">
<path d="M48.6038 22.2951L62.0325 25.0712L73.2014 22.6179L81.3361 22.6179L83.9185 23.0053L88.8897 24.4902L91.5367 25.2649L93.0861 25.9105L95.6685 27.2663L99.865 31.3336L103.158 35.2718L104.384 37.5314L105.675 40.4367L106.902 43.0191L107.354 45.0205L108.452 51.993L108.968 59.0301L109.291 64.0659L113.164 71.1675L113.294 71.8132L113.358 73.4272L112.131 76.7198L111.034 78.0755L109.485 79.8832L108.71 80.7871L107.505 81.6909L104.793 83.2404L104.32 83.2404L103.48 83.1113L102.641 82.9176L102.06 82.5302L101.673 81.9492L101.544 79.6895L101.802 77.4299L102.641 75.4931L100.123 72.7816L98.1864 70.6511L97.4117 69.5535L95.604 68.5851L83.9185 63.5494L82.369 63.4848L81.0778 63.7431L76.4295 64.9052L71.9102 65.2925L67.1327 64.5824L66.5517 64.8406L67.391 78.7211L67.1327 80.4643L65.9706 82.6593L64.5503 84.2088L63.3882 84.919L62.1616 85.3709L58.869 85.6291L55.8992 85.5646L54.8016 85.1772L53.8332 84.5316L53.5104 83.7569L53.3813 82.9821L53.6395 82.0137L53.9624 81.1744L55.6409 79.7541L57.1258 78.592L51.8319 67.2939L49.7659 65.6153L35.3043 59.6757L33.1738 58.1263L31.8826 56.1895L26.7823 56.254L24.7809 56.254L23.0378 55.9958L21.3592 55.1565L20.7136 55.0919L13.0955 55.673L11.2232 55.1703L8.83446 53.2842L8.1243 52.6386L7.15589 51.412L5.99379 49.6043L5.92923 49.2169L5.9938 48.6359L6.18748 48.1839L7.15589 47.3447L10.513 44.9559L11.2232 39.4683L12.3207 38.1125L16.3235 34.5617L16.5172 29.7196L16.7109 28.8158L17.0982 28.041L18.0021 27.3309L18.8414 27.1372L19.8098 27.3309L21.2947 28.8158L21.682 28.8158L22.134 28.6221L22.7796 26.2333L22.9087 25.7814L23.4252 25.394L24.4037 25.1786L25.5557 25.5232L29.7521 28.2347L31.6889 28.1702L42.0832 22.8762L46.4088 22.166L48.6038 22.2951Z" fill="white"/>
<path d="M33.6909 60.3857L48.6689 66.6481L39.0494 79.7539L34.3365 83.3693L31.3021 83.9504L24.5878 84.4669L22.4573 84.3377L20.9724 83.9504L20.3268 83.3693L19.9395 82.0136L20.3268 80.5932L22.4573 78.9792L27.1702 77.0424L31.1084 70.9737L33.6909 60.3857Z" fill="white"/>
<path d="M83.0157 64.582L95.9924 70.1342L93.7328 72.3939L88.7616 80.4639L88.0514 81.4324L87.2121 82.1425L84.9525 83.692L83.6613 84.1439L76.8824 84.4021L75.2039 83.9502L74.5583 83.5629L73.719 82.9818L73.5898 82.4653V81.626L74.0418 80.1411L75.7203 78.5271L80.627 76.3321L83.2094 70.6507L83.0157 64.582Z" fill="white"/>
</svg>
