<svg width="13" height="17" viewBox="0 0 13 17" fill="none" xmlns="http://www.w3.org/2000/svg">
<path d="M0.992188 16.0234C0.992188 16.3672 1.27344 16.6484 1.61719 16.6484C1.96875 16.6484 2.25 16.3672 2.25 16.0234V1.74219C2.25 1.49219 2.41406 1.32812 2.64844 1.32812H11.2422C11.4766 1.32812 11.6406 1.49219 11.6406 1.74219V16.0234C11.6406 16.3672 11.9219 16.6484 12.2734 16.6484C12.6172 16.6484 12.8984 16.3672 12.8984 16.0234V1.66406C12.8984 0.710938 12.25 0.0703125 11.2656 0.0703125H2.625C1.64844 0.0703125 0.992188 0.710938 0.992188 1.66406V16.0234ZM3.16406 16.2031C3.16406 16.3516 3.28906 16.4297 3.4375 16.3672L5.89062 15.2812C6.08594 15.1953 6.16406 15.1328 6.16406 14.9297V3.67188C6.16406 3.47656 6.08594 3.40625 5.89844 3.32812L3.4375 2.23438C3.28906 2.17188 3.16406 2.25 3.16406 2.40625V16.2031Z" fill="#FF7E7E"/>
</svg>
