<svg width="113" height="110" viewBox="0 0 113 110" fill="none" xmlns="http://www.w3.org/2000/svg">
<g opacity="0.6" clip-path="url(#clip0_2471_797)">
<path d="M71.7367 24.7384H41.2881C40.5943 24.7393 39.929 25.0145 39.4384 25.5038C38.9478 25.9931 38.6718 26.6565 38.6709 27.3485V94.8355L38.322 94.9416L30.8524 97.2228C30.4984 97.3304 30.1161 97.2936 29.7893 97.1204C29.4625 96.9471 29.218 96.6517 29.1094 96.2988L6.89099 23.9224C6.78286 23.5693 6.81971 23.1879 6.99344 22.862C7.16718 22.536 7.46357 22.2922 7.81749 22.1841L19.328 18.6692L52.6974 8.4831L64.2079 4.96824C64.3831 4.91448 64.5671 4.89569 64.7496 4.91295C64.9321 4.93022 65.1093 4.9832 65.2712 5.06885C65.4331 5.15451 65.5765 5.27117 65.6931 5.41215C65.8098 5.55313 65.8974 5.71567 65.951 5.89046L71.6303 24.3904L71.7367 24.7384Z" fill="#F2F2F2"/>
<path d="M34.6861 62.493C31.673 63.3839 29.2256 61.9002 28.2496 58.599L28.2455 58.585C27.284 55.333 28.5369 52.7248 31.4868 51.8526C33.8819 51.1445 36.0378 52.0041 36.9379 53.9376L36.9727 54.0037L34.8656 54.6267L34.8308 54.5606C34.2458 53.6414 33.2054 53.2998 32.0184 53.6507C30.3819 54.1345 29.765 55.7681 30.4025 57.9243L30.4067 57.9384C31.0567 60.1368 32.518 61.1788 34.1896 60.6846C35.5803 60.2734 36.2843 59.1411 35.9485 57.8504L35.8995 57.6587L33.7081 58.3065L33.2512 56.7613L37.5076 55.5029L37.8876 56.7883C38.6829 59.4783 37.4535 61.6749 34.6861 62.493ZM44.6432 59.5492C41.63 60.4401 39.1554 58.9415 38.1877 55.6685L38.1835 55.6544C37.2138 52.3744 38.508 49.7768 41.493 48.8943C44.4781 48.0118 46.9717 49.4971 47.9394 52.7701L47.9436 52.7841C48.9112 56.0572 47.6353 58.6646 44.6432 59.5492ZM44.1116 57.7512C45.7621 57.2632 46.4136 55.5659 45.7803 53.4237L45.7761 53.4097C45.1407 51.2604 43.6682 50.2064 42.0246 50.6924C40.3741 51.1803 39.7114 52.8656 40.3468 55.0148L40.351 55.0289C40.9843 57.1711 42.4399 58.2454 44.1116 57.7512ZM50.4497 57.5499L47.4532 47.4148L49.8834 46.6963L54.8787 53.2847L55.0051 53.2474L55.6077 45.0039L58.0379 44.2854L61.0343 54.4206L59.145 54.9792L57.1058 48.0819L56.9653 48.1234L56.4057 55.789L55.0783 56.1815L50.4403 50.0526L50.2998 50.0941L52.339 56.9913L50.4497 57.5499ZM66.1938 53.1778C63.7706 53.8942 61.8968 53.1879 61.2458 51.4252L61.2056 51.3149L63.2495 50.7106L63.2773 50.7788C63.5788 51.5145 64.5521 51.7843 65.7391 51.4333C66.87 51.099 67.4897 50.3277 67.2592 49.548L67.2571 49.541C67.0598 48.8738 66.4511 48.6489 65.117 48.7608L63.9851 48.8587C61.7513 49.0532 60.5545 48.3378 60.0997 46.7996L60.0977 46.7926C59.5412 44.9102 60.789 43.1894 63.0366 42.5249C65.4036 41.8251 67.1639 42.6642 67.7978 44.3174L67.8318 44.4066L65.8371 44.9964L65.7981 44.9163C65.4649 44.2281 64.613 43.9301 63.5454 44.2457C62.5009 44.5621 61.9468 45.2453 62.1711 46.0039L62.1731 46.0109C62.3683 46.6711 62.9763 46.9191 64.243 46.8119L65.382 46.7119C67.655 46.5211 68.8425 47.1018 69.3097 48.6821L69.3118 48.6891C69.9057 50.6979 68.7223 52.4302 66.1938 53.1778Z" fill="#5F9DF7"/>
<path d="M78.3813 24.3907L71.5364 2.09397C71.4225 1.72246 71.2363 1.37698 70.9885 1.07725C70.7407 0.77753 70.4361 0.529443 70.0921 0.347167C69.7481 0.164892 69.3714 0.0519999 68.9836 0.0149462C68.5959 -0.0221074 68.2046 0.0174035 67.8321 0.131217L51.6491 5.07116L18.2814 15.259L2.09834 20.2007C1.34656 20.4309 0.717088 20.9492 0.348086 21.6418C-0.0209167 22.3343 -0.0992979 23.1446 0.13015 23.8948L23.5245 100.096C23.7109 100.701 24.087 101.231 24.5976 101.608C25.1082 101.985 25.7265 102.188 26.3616 102.189C26.6556 102.189 26.9479 102.145 27.2288 102.059L38.3222 98.6725L38.6712 98.5646V98.2009L38.3222 98.3071L27.1258 101.726C26.4623 101.928 25.7455 101.859 25.1329 101.534C24.5202 101.21 24.0617 100.656 23.8578 99.9949L0.465224 23.7921C0.364216 23.4645 0.329012 23.1201 0.361626 22.7789C0.394241 22.4376 0.494032 22.1062 0.65529 21.8034C0.816549 21.5007 1.03611 21.2327 1.30139 21.0147C1.56667 20.7967 1.87246 20.633 2.20126 20.533L18.3843 15.5914L51.7521 5.40524L67.9351 0.463566C68.1845 0.387666 68.4438 0.348966 68.7045 0.348723C69.2641 0.349976 69.8086 0.529888 70.2582 0.862105C70.7079 1.19432 71.039 1.66139 71.2032 2.19489L78.0166 24.3907L78.1248 24.7387H78.4877L78.3813 24.3907Z" fill="#3F3D56"/>
<path d="M21.4056 22.241C21.0693 22.2407 20.742 22.133 20.4716 21.9337C20.2012 21.7343 20.0019 21.4537 19.9031 21.1332L17.6557 13.8125C17.5954 13.6159 17.5744 13.4093 17.5941 13.2046C17.6138 12.9999 17.6737 12.801 17.7704 12.6194C17.8672 12.4378 17.9989 12.2769 18.1579 12.1461C18.317 12.0152 18.5004 11.9169 18.6976 11.8567L49.3956 2.48427C49.7938 2.36308 50.224 2.40441 50.5917 2.59919C50.9594 2.79397 51.2346 3.12628 51.3569 3.52319L53.6042 10.8439C53.7257 11.241 53.6842 11.67 53.4889 12.0367C53.2936 12.4033 52.9604 12.6778 52.5625 12.7998L21.8644 22.1722C21.7158 22.2177 21.5611 22.2409 21.4056 22.241Z" fill="#5F9DF7"/>
<path d="M33.1781 7.82242C35.1054 7.82242 36.6677 6.26434 36.6677 4.34236C36.6677 2.42038 35.1054 0.862305 33.1781 0.862305C31.2508 0.862305 29.6885 2.42038 29.6885 4.34236C29.6885 6.26434 31.2508 7.82242 33.1781 7.82242Z" fill="#5F9DF7"/>
<path d="M33.1785 6.54603C34.3989 6.54603 35.3882 5.55941 35.3882 4.34235C35.3882 3.12529 34.3989 2.13867 33.1785 2.13867C31.9581 2.13867 30.9688 3.12529 30.9688 4.34235C30.9688 5.55941 31.9581 6.54603 33.1785 6.54603Z" fill="white"/>
<path d="M105.148 104.3H105.152C106.337 104.298 107.474 103.828 108.315 102.99C109.155 102.152 109.63 101.014 109.631 99.8243V99.8207V29.3496V29.3462C109.63 28.1569 109.155 27.0185 108.315 26.1801C107.474 25.342 106.336 24.872 105.151 24.8706H105.148L46.1735 24.8706L46.1702 24.8706C44.9851 24.8719 43.8473 25.3419 43.0069 26.1801C42.1662 27.0185 41.6918 28.157 41.6904 29.3463H41.6904V29.3496L41.6904 99.8207L41.6904 99.8242C41.6918 101.013 42.1662 102.152 43.0069 102.99C43.8473 103.828 44.985 104.298 46.1701 104.3H46.1735H105.148Z" fill="#E6E6E6" stroke="#F7F7F9" stroke-width="6"/>
<path d="M78.0166 24.3906H41.2884C40.5021 24.3917 39.7483 24.7037 39.1923 25.2582C38.6362 25.8127 38.3234 26.5645 38.3223 27.3487V98.307L38.6712 98.2009V27.3487C38.6721 26.6567 38.9481 25.9933 39.4387 25.504C39.9294 25.0147 40.5946 24.7395 41.2884 24.7386H78.1248L78.0166 24.3906ZM110.034 24.3906H41.2884C40.5021 24.3917 39.7483 24.7037 39.1923 25.2582C38.6362 25.8127 38.3234 26.5645 38.3223 27.3487V107.042C38.3234 107.826 38.6362 108.578 39.1923 109.132C39.7483 109.687 40.5021 109.999 41.2884 110H110.034C110.82 109.999 111.574 109.687 112.13 109.132C112.686 108.578 112.999 107.826 113 107.042V27.3487C112.999 26.5645 112.686 25.8127 112.13 25.2582C111.574 24.7037 110.82 24.3917 110.034 24.3906ZM112.651 107.042C112.65 107.734 112.374 108.397 111.884 108.887C111.393 109.376 110.728 109.651 110.034 109.652H41.2884C40.5946 109.651 39.9294 109.376 39.4387 108.887C38.9481 108.397 38.6721 107.734 38.6712 107.042V27.3487C38.6721 26.6567 38.9481 25.9933 39.4387 25.504C39.9294 25.0147 40.5946 24.7395 41.2884 24.7386H110.034C110.728 24.7395 111.393 25.0147 111.884 25.504C112.374 25.9933 112.65 26.6567 112.651 27.3487V107.042Z" fill="#3F3D56"/>
<path d="M91.7138 32.047H59.6094C59.1931 32.0465 58.7939 31.8814 58.4995 31.5878C58.2051 31.2942 58.0395 30.8961 58.0391 30.4809V22.8248C58.0395 22.4096 58.2051 22.0116 58.4995 21.718C58.7939 21.4244 59.1931 21.2593 59.6094 21.2588H91.7138C92.1302 21.2593 92.5293 21.4244 92.8237 21.718C93.1181 22.0116 93.2837 22.4096 93.2842 22.8248V30.4809C93.2837 30.8961 93.1181 31.2942 92.8237 31.5878C92.5293 31.8814 92.1302 32.0465 91.7138 32.047Z" fill="#5F9DF7"/>
<path d="M75.6615 21.7804C77.5887 21.7804 79.1511 20.2223 79.1511 18.3004C79.1511 16.3784 77.5887 14.8203 75.6615 14.8203C73.7342 14.8203 72.1719 16.3784 72.1719 18.3004C72.1719 20.2223 73.7342 21.7804 75.6615 21.7804Z" fill="#5F9DF7"/>
<path d="M75.6607 20.2394C76.8345 20.2394 77.7862 19.2903 77.7862 18.1197C77.7862 16.949 76.8345 16 75.6607 16C74.4868 16 73.5352 16.949 73.5352 18.1197C73.5352 19.2903 74.4868 20.2394 75.6607 20.2394Z" fill="white"/>
<path d="M59.8813 73.271C56.7393 73.271 54.813 71.1543 54.813 67.7119V67.6973C54.813 64.3062 56.7539 62.1602 59.8301 62.1602C62.3276 62.1602 64.1514 63.5957 64.4663 65.7051L64.481 65.7783H62.2837L62.269 65.7051C61.9688 64.6577 61.0679 64.0352 59.8301 64.0352C58.1235 64.0352 57.0688 65.4268 57.0688 67.6753V67.6899C57.0688 69.9824 58.1748 71.396 59.918 71.396C61.3682 71.396 62.3643 70.5098 62.4082 69.1768L62.4155 68.979H60.1304V67.3677H64.5688V68.708C64.5688 71.5132 62.7671 73.271 59.8813 73.271ZM70.2645 73.271C67.1224 73.271 65.1741 71.1323 65.1741 67.7192V67.7046C65.1741 64.2842 67.1517 62.1602 70.2645 62.1602C73.3772 62.1602 75.3475 64.2915 75.3475 67.7046V67.7192C75.3475 71.1323 73.3846 73.271 70.2645 73.271ZM70.2645 71.396C71.9856 71.396 73.0916 69.9531 73.0916 67.7192V67.7046C73.0916 65.4634 71.9783 64.0352 70.2645 64.0352C68.5433 64.0352 67.43 65.4634 67.43 67.7046V67.7192C67.43 69.9531 68.5213 71.396 70.2645 71.396ZM76.3995 73V62.4312H78.9337L81.8561 70.1655H81.9879L84.9029 62.4312H87.4371V73H85.4669V65.8076H85.3204L82.6104 73H81.2262L78.5162 65.8076H78.3697V73H76.3995ZM92.7372 73.271C90.2104 73.271 88.6137 72.0625 88.4892 70.1875L88.4818 70.0703H90.6132L90.6205 70.1436C90.7011 70.9346 91.558 71.4692 92.7958 71.4692C93.975 71.4692 94.788 70.9053 94.788 70.0923V70.085C94.788 69.3892 94.268 69.001 92.9569 68.73L91.8437 68.5029C89.6464 68.0562 88.7016 67.0308 88.7016 65.4268V65.4194C88.7016 63.4565 90.3861 62.1602 92.7299 62.1602C95.1981 62.1602 96.6483 63.4639 96.7875 65.229L96.7948 65.3242H94.7147L94.7001 65.2363C94.5756 64.4819 93.8432 63.9546 92.7299 63.9546C91.6386 63.9619 90.9135 64.46 90.9135 65.251V65.2583C90.9135 65.9468 91.4262 66.3569 92.6713 66.6133L93.7919 66.8403C96.0258 67.3018 96.9999 68.1953 96.9999 69.8433V69.8506C96.9999 71.9453 95.3739 73.271 92.7372 73.271Z" fill="#5F9DF7"/>
</g>
<defs>
<clipPath id="clip0_2471_797">
<rect width="113" height="110" fill="white"/>
</clipPath>
</defs>
</svg>
