<svg width="18" height="19" viewBox="0 0 18 19" fill="none" xmlns="http://www.w3.org/2000/svg">
<path d="M0.962576 6.59935C0.511557 6.59935 0.255095 6.33404 0.255095 5.87418V3.70752C0.255095 1.88576 1.18366 0.974877 3.03196 0.974877H5.18977C5.65848 0.974877 5.91494 1.2225 5.91494 1.68236C5.91494 2.14222 5.65848 2.39868 5.18977 2.39868H3.04964C2.16529 2.39868 1.6789 2.86739 1.6789 3.78711V5.87418C1.6789 6.33404 1.43128 6.59935 0.962576 6.59935ZM16.8544 6.59935C16.4033 6.59935 16.1469 6.33404 16.1469 5.87418V3.78711C16.1469 2.86739 15.6428 2.39868 14.7673 2.39868H12.6272C12.1673 2.39868 11.9108 2.14222 11.9108 1.68236C11.9108 1.2225 12.1673 0.974877 12.6272 0.974877H14.7938C16.6421 0.974877 17.5707 1.88576 17.5707 3.70752V5.87418C17.5707 6.33404 17.3231 6.59935 16.8544 6.59935ZM5.05712 9.24356C4.83603 9.24356 4.66801 9.07553 4.66801 8.86329V5.7769C4.66801 5.56466 4.83603 5.38779 5.05712 5.38779H8.13466C8.35575 5.38779 8.52378 5.56466 8.52378 5.7769V8.86329C8.52378 9.07553 8.35575 9.24356 8.13466 9.24356H5.05712ZM9.67343 9.24356C9.45234 9.24356 9.28432 9.07553 9.28432 8.86329V5.7769C9.28432 5.56466 9.45234 5.38779 9.67343 5.38779H12.751C12.9721 5.38779 13.1401 5.56466 13.1401 5.7769V8.86329C13.1401 9.07553 12.9721 9.24356 12.751 9.24356H9.67343ZM5.43739 8.47417H7.75439V6.15717H5.43739V8.47417ZM10.0537 8.47417H12.3707V6.15717H10.0537V8.47417ZM6.1095 7.80207V6.82928H7.08228V7.80207H6.1095ZM10.7347 7.80207V6.82928H11.6986V7.80207H10.7347ZM5.05712 13.8687C4.83603 13.8687 4.66801 13.7007 4.66801 13.4796V10.4021C4.66801 10.181 4.83603 10.0129 5.05712 10.0129H8.13466C8.35575 10.0129 8.52378 10.181 8.52378 10.4021V13.4796C8.52378 13.7007 8.35575 13.8687 8.13466 13.8687H5.05712ZM9.39928 11.083V10.1191H10.3632V11.083H9.39928ZM12.0612 11.083V10.1191H13.0251V11.083H12.0612ZM5.43739 13.0993H7.75439V10.7823H5.43739V13.0993ZM6.1095 12.4184V11.4544H7.08228V12.4184H6.1095ZM10.7258 12.4184V11.4544H11.6986V12.4184H10.7258ZM3.03196 18.2816C1.18366 18.2816 0.255095 17.3707 0.255095 15.5401V13.3823C0.255095 12.9136 0.502713 12.6572 0.962576 12.6572C1.42244 12.6572 1.6789 12.9136 1.6789 13.3823V15.4694C1.6789 16.3891 2.16529 16.8578 3.04964 16.8578H5.18977C5.65848 16.8578 5.91494 17.1143 5.91494 17.5741C5.91494 18.0252 5.65848 18.2816 5.18977 18.2816H3.03196ZM12.6272 18.2816C12.1673 18.2816 11.9108 18.0252 11.9108 17.5741C11.9108 17.1143 12.1673 16.8578 12.6272 16.8578H14.7673C15.6428 16.8578 16.1469 16.3891 16.1469 15.4694V13.3823C16.1469 12.9136 16.3945 12.6572 16.8544 12.6572C17.3142 12.6572 17.5707 12.9136 17.5707 13.3823V15.5401C17.5707 17.3619 16.6421 18.2816 14.7938 18.2816H12.6272ZM9.39928 13.7537V12.7898H10.3632V13.7537H9.39928ZM12.0612 13.7537V12.7898H13.0251V13.7537H12.0612Z" fill="#959595"/>
</svg>
