<svg width="18" height="19" viewBox="0 0 18 19" fill="none" xmlns="http://www.w3.org/2000/svg">
<path d="M0.962576 6.59935C1.43128 6.59935 1.6789 6.33404 1.6789 5.87418V3.78711C1.6789 2.86739 2.16529 2.39868 3.04964 2.39868H5.18977C5.65848 2.39868 5.91494 2.14222 5.91494 1.68236C5.91494 1.2225 5.65848 0.974877 5.18977 0.974877H3.03196C1.18366 0.974877 0.255095 1.88576 0.255095 3.70752V5.87418C0.255095 6.33404 0.511557 6.59935 0.962576 6.59935ZM16.8544 6.59935C17.3231 6.59935 17.5707 6.33404 17.5707 5.87418V3.70752C17.5707 1.88576 16.6421 0.974877 14.7938 0.974877H12.6272C12.1673 0.974877 11.9108 1.2225 11.9108 1.68236C11.9108 2.14222 12.1673 2.39868 12.6272 2.39868H14.7673C15.6428 2.39868 16.1469 2.86739 16.1469 3.78711V5.87418C16.1469 6.33404 16.4033 6.59935 16.8544 6.59935ZM5.05712 9.24356H8.13466C8.35575 9.24356 8.52378 9.07553 8.52378 8.86329V5.7769C8.52378 5.56466 8.35575 5.38779 8.13466 5.38779H5.05712C4.83603 5.38779 4.66801 5.56466 4.66801 5.7769V8.86329C4.66801 9.07553 4.83603 9.24356 5.05712 9.24356ZM9.67343 9.24356H12.751C12.9721 9.24356 13.1401 9.07553 13.1401 8.86329V5.7769C13.1401 5.56466 12.9721 5.38779 12.751 5.38779H9.67343C9.45234 5.38779 9.28432 5.56466 9.28432 5.7769V8.86329C9.28432 9.07553 9.45234 9.24356 9.67343 9.24356ZM5.43739 8.47417V6.15717H7.75439V8.47417H5.43739ZM10.0537 8.47417V6.15717H12.3707V8.47417H10.0537ZM6.1095 7.80207H7.08228V6.82928H6.1095V7.80207ZM10.7347 7.80207H11.6986V6.82928H10.7347V7.80207ZM5.05712 13.8687H8.13466C8.35575 13.8687 8.52378 13.7007 8.52378 13.4796V10.4021C8.52378 10.181 8.35575 10.0129 8.13466 10.0129H5.05712C4.83603 10.0129 4.66801 10.181 4.66801 10.4021V13.4796C4.66801 13.7007 4.83603 13.8687 5.05712 13.8687ZM9.39928 11.083H10.3632V10.1191H9.39928V11.083ZM12.0612 11.083H13.0251V10.1191H12.0612V11.083ZM5.43739 13.0993V10.7823H7.75439V13.0993H5.43739ZM6.1095 12.4184H7.08228V11.4544H6.1095V12.4184ZM10.7258 12.4184H11.6986V11.4544H10.7258V12.4184ZM3.03196 18.2816H5.18977C5.65848 18.2816 5.91494 18.0252 5.91494 17.5741C5.91494 17.1143 5.65848 16.8578 5.18977 16.8578H3.04964C2.16529 16.8578 1.6789 16.3891 1.6789 15.4694V13.3823C1.6789 12.9136 1.42244 12.6572 0.962576 12.6572C0.502713 12.6572 0.255095 12.9136 0.255095 13.3823V15.5401C0.255095 17.3707 1.18366 18.2816 3.03196 18.2816ZM12.6272 18.2816H14.7938C16.6421 18.2816 17.5707 17.3619 17.5707 15.5401V13.3823C17.5707 12.9136 17.3142 12.6572 16.8544 12.6572C16.3945 12.6572 16.1469 12.9136 16.1469 13.3823V15.4694C16.1469 16.3891 15.6428 16.8578 14.7673 16.8578H12.6272C12.1673 16.8578 11.9108 17.1143 11.9108 17.5741C11.9108 18.0252 12.1673 18.2816 12.6272 18.2816ZM9.39928 13.7537H10.3632V12.7898H9.39928V13.7537ZM12.0612 13.7537H13.0251V12.7898H12.0612V13.7537Z" fill="#959595"/>
</svg>
