<svg width="101" height="99" viewBox="0 0 101 99" fill="none" xmlns="http://www.w3.org/2000/svg">
<path d="M38.7994 17.7979L49.5193 20.014L58.4353 18.0556L64.9291 18.0556L66.9906 18.3648L70.959 19.5502L73.0721 20.1687L74.309 20.684L76.3705 21.7663L79.7205 25.0132L82.3489 28.157L83.3281 29.9609L84.3589 32.2801L85.3381 34.3416L85.6989 35.9393L86.575 41.5053L86.9873 47.123L87.245 51.1429L90.3373 56.8121L90.4403 57.3275L90.4919 58.6159L89.5127 61.2444L88.6365 62.3267L87.3996 63.7697L86.7812 64.4913L85.8191 65.2128L83.6545 66.4497L83.2766 66.4497L82.6066 66.3466L81.9366 66.192L81.4727 65.8828L81.1635 65.4189L81.0604 63.6151L81.2666 61.8113L81.9366 60.2651L79.9266 58.1006L78.3805 56.3998L77.762 55.5237L76.319 54.7506L66.9906 50.7306L65.7537 50.6791L64.7229 50.8852L61.0122 51.8129L57.4045 52.1222L53.5907 51.5552L53.1269 51.7614L53.7969 62.842L53.5907 64.2336L52.6631 65.9859L51.5292 67.2228L50.6015 67.7897L49.6223 68.1504L46.9939 68.3566L44.6231 68.3051L43.747 67.9958L42.9739 67.4805L42.7162 66.862L42.6132 66.2435L42.8193 65.4705L43.077 64.8005L44.417 63.6666L45.6024 62.739L41.3762 53.7198L39.727 52.3798L28.1825 47.6384L26.4818 46.4014L25.451 44.8553L21.3795 44.9068L19.7819 44.9068L18.3903 44.7007L17.0504 44.0307L16.535 43.9792L10.4535 44.443L8.9589 44.0417L7.052 42.5361L6.48509 42.0207L5.71201 41.0415L4.78433 39.5984L4.73279 39.2892L4.78433 38.8254L4.93895 38.4646L5.71202 37.7946L8.39199 35.8877L8.9589 31.507L9.83505 30.4247L13.0304 27.5901L13.185 23.7248L13.3396 23.0032L13.6489 22.3848L14.3704 21.8179L15.0404 21.6633L15.8134 21.8179L16.9988 23.0032L17.308 23.0032L17.6688 22.8486L18.1842 20.9417L18.2873 20.581L18.6996 20.2717L19.4807 20.0998L20.4003 20.3748L23.7503 22.5394L25.2964 22.4879L33.594 18.2618L37.0471 17.6948L38.7994 17.7979Z" fill="#FF8B43"/>
<path d="M26.8946 48.2051L38.8514 53.2043L31.1722 63.6665L27.4099 66.5526L24.9877 67.0164L19.6277 67.4287L17.927 67.3256L16.7416 67.0164L16.2262 66.5526L15.917 65.4703L16.2262 64.3364L17.927 63.048L21.6892 61.5019L24.833 56.6573L26.8946 48.2051Z" fill="#FF8B43"/>
<path d="M66.2706 51.5552L76.6297 55.9874L74.8259 57.7913L70.8575 64.2335L70.2906 65.0066L69.6206 65.5735L67.8168 66.8104L66.786 67.1712L61.3745 67.3773L60.0345 67.0165L59.5192 66.7073L58.8492 66.2435L58.7461 65.8312V65.1612L59.1069 63.9758L60.4468 62.6874L64.3637 60.9351L66.4252 56.3997L66.2706 51.5552Z" fill="#FF8B43"/>
<path d="M29.252 92.116C29.252 92.5927 29.1393 92.9437 28.914 93.169C28.6973 93.403 28.3593 93.52 27.9 93.52C27.6227 93.52 27.38 93.455 27.172 93.325C26.964 93.195 26.7733 93.0477 26.6 92.883C26.4353 92.7183 26.2707 92.571 26.106 92.441C25.9413 92.311 25.7593 92.246 25.56 92.246C25.352 92.246 25.1093 92.311 24.832 92.441C24.5547 92.5623 24.2297 92.7097 23.857 92.883C23.4843 93.0477 23.051 93.1907 22.557 93.312C22.063 93.442 21.4953 93.507 20.854 93.507C19.424 93.507 18.1457 93.2817 17.019 92.831C15.901 92.3803 14.952 91.7347 14.172 90.894C13.392 90.0533 12.7983 89.0437 12.391 87.865C11.9837 86.6863 11.78 85.3647 11.78 83.9C11.78 82.5393 12.0227 81.2783 12.508 80.117C13.002 78.947 13.6867 77.9243 14.562 77.049C15.4373 76.1737 16.4557 75.4933 17.617 75.008C18.7783 74.5227 20.0307 74.28 21.374 74.28C22.258 74.28 22.9773 74.345 23.532 74.475C24.0867 74.605 24.5417 74.735 24.897 74.865C25.2523 74.995 25.5687 75.06 25.846 75.06C26.0887 75.06 26.2967 74.9993 26.47 74.878C26.652 74.7567 26.8253 74.6353 26.99 74.514C27.1633 74.3927 27.354 74.332 27.562 74.332C27.926 74.332 28.1773 74.4317 28.316 74.631C28.4633 74.8303 28.602 75.1597 28.732 75.619L29.928 79.753C30.0407 80.143 29.9843 80.4723 29.759 80.741C29.5423 81.0097 29.2347 81.1787 28.836 81.248C28.5067 81.3 28.1947 81.261 27.9 81.131C27.614 81.001 27.367 80.728 27.159 80.312C26.7083 79.402 26.2143 78.6913 25.677 78.18C25.1397 77.6687 24.5807 77.3133 24 77.114C23.4193 76.906 22.83 76.802 22.232 76.802C21.3307 76.802 20.5507 77.0533 19.892 77.556C19.2333 78.0587 18.722 78.7823 18.358 79.727C18.0027 80.6717 17.825 81.8113 17.825 83.146C17.825 84.6627 18.0503 85.9583 18.501 87.033C18.9517 88.099 19.5453 88.918 20.282 89.49C21.0187 90.062 21.816 90.348 22.674 90.348C22.908 90.348 23.103 90.3263 23.259 90.283C23.4237 90.2397 23.5537 90.179 23.649 90.101C23.7443 90.0143 23.8137 89.906 23.857 89.776C23.9003 89.646 23.922 89.4987 23.922 89.334V87.267C23.922 87.0157 23.8657 86.838 23.753 86.734C23.6403 86.63 23.4713 86.526 23.246 86.422L22.83 86.227C22.5007 86.071 22.232 85.8977 22.024 85.707C21.816 85.5077 21.712 85.239 21.712 84.901C21.712 84.511 21.8333 84.2033 22.076 83.978C22.3187 83.7527 22.6957 83.64 23.207 83.64H29.512C30.032 83.64 30.409 83.7527 30.643 83.978C30.8857 84.2033 31.007 84.5067 31.007 84.888C31.007 85.2 30.9333 85.4557 30.786 85.655C30.6473 85.8543 30.4393 86.0233 30.162 86.162L29.928 86.279C29.746 86.3657 29.5857 86.4783 29.447 86.617C29.317 86.747 29.252 86.9637 29.252 87.267V92.116ZM40.313 74.28C41.795 74.28 43.1296 74.5183 44.317 74.995C45.513 75.463 46.5313 76.1217 47.372 76.971C48.2126 77.8203 48.8583 78.8213 49.309 79.974C49.7596 81.1267 49.985 82.3833 49.985 83.744C49.985 85.1653 49.7596 86.474 49.309 87.67C48.867 88.8573 48.2256 89.8887 47.385 90.764C46.5443 91.6393 45.526 92.3197 44.33 92.805C43.1426 93.2817 41.8036 93.52 40.313 93.52C38.7963 93.52 37.44 93.286 36.244 92.818C35.048 92.35 34.0296 91.6827 33.189 90.816C32.357 89.9493 31.72 88.9223 31.278 87.735C30.8446 86.539 30.628 85.2173 30.628 83.77C30.628 82.47 30.8446 81.248 31.278 80.104C31.7113 78.96 32.344 77.9547 33.176 77.088C34.008 76.2127 35.022 75.528 36.218 75.034C37.4226 74.5313 38.7876 74.28 40.313 74.28ZM43.784 87.28C43.784 86.24 43.6886 85.2173 43.498 84.212C43.316 83.2067 43.0603 82.262 42.731 81.378C42.4103 80.494 42.042 79.7183 41.626 79.051C41.21 78.375 40.768 77.8463 40.3 77.465C39.832 77.075 39.3683 76.88 38.909 76.88C38.4496 76.88 38.0683 77.0187 37.765 77.296C37.4703 77.5647 37.2493 77.972 37.102 78.518C36.9633 79.0553 36.894 79.7227 36.894 80.52C36.894 81.586 36.9893 82.626 37.18 83.64C37.3793 84.654 37.648 85.5987 37.986 86.474C38.324 87.3493 38.701 88.1163 39.117 88.775C39.5416 89.4337 39.9793 89.9493 40.43 90.322C40.8893 90.6947 41.3313 90.881 41.756 90.881C42.1806 90.881 42.5446 90.764 42.848 90.53C43.1513 90.2873 43.381 89.9017 43.537 89.373C43.7016 88.8443 43.784 88.1467 43.784 87.28ZM63.5358 88.138L60.9098 88.216L65.1608 77.244C65.5162 76.334 65.8975 75.7013 66.3048 75.346C66.7122 74.982 67.2928 74.8 68.0468 74.8H72.6358C73.1472 74.8 73.5242 74.9213 73.7668 75.164C74.0095 75.398 74.1308 75.7187 74.1308 76.126C74.1308 76.4813 74.0528 76.7717 73.8968 76.997C73.7408 77.2223 73.5372 77.4043 73.2858 77.543L72.8698 77.764C72.6532 77.8767 72.4755 78.0067 72.3368 78.154C72.2068 78.3013 72.1548 78.544 72.1808 78.882L72.8828 88.918C72.9088 89.256 72.9695 89.4987 73.0648 89.646C73.1602 89.7933 73.3118 89.9233 73.5198 90.036L73.9358 90.257C74.1698 90.3783 74.3562 90.5473 74.4948 90.764C74.6335 90.9807 74.7028 91.258 74.7028 91.596C74.7028 92.012 74.5815 92.35 74.3388 92.61C74.0962 92.87 73.7192 93 73.2078 93H66.4608C65.9495 93 65.5725 92.883 65.3298 92.649C65.0872 92.4063 64.9658 92.0813 64.9658 91.674C64.9658 91.3533 65.0352 91.0803 65.1738 90.855C65.3125 90.621 65.5292 90.4217 65.8238 90.257L66.2398 90.036C66.4652 89.9147 66.6385 89.7847 66.7598 89.646C66.8898 89.4987 66.9418 89.256 66.9158 88.918L65.9798 77.166L68.1248 77.14L62.9508 90.452C62.6042 91.3533 62.2748 91.9427 61.9628 92.22C61.6508 92.4887 61.2522 92.623 60.7668 92.623C60.4202 92.623 60.1082 92.5797 59.8308 92.493C59.5622 92.3977 59.3065 92.1897 59.0638 91.869C58.8212 91.5397 58.5612 91.024 58.2838 90.322L53.2918 77.738L55.1768 77.556L54.2668 88.918C54.2322 89.2907 54.2842 89.5507 54.4228 89.698C54.5615 89.8453 54.7392 89.9927 54.9558 90.14L55.3718 90.426C55.5452 90.5387 55.6838 90.6947 55.7878 90.894C55.9005 91.0847 55.9568 91.3273 55.9568 91.622C55.9568 92.0467 55.8355 92.3847 55.5928 92.636C55.3502 92.8787 54.9732 93 54.4618 93H51.0558C50.5445 93 50.1675 92.883 49.9248 92.649C49.6822 92.4063 49.5608 92.0813 49.5608 91.674C49.5608 91.2753 49.6518 90.972 49.8338 90.764C50.0158 90.5473 50.2542 90.3567 50.5488 90.192L50.8348 90.036C51.0255 89.932 51.1772 89.8063 51.2898 89.659C51.4112 89.503 51.4848 89.256 51.5108 88.918L52.3298 78.882C52.3558 78.544 52.3038 78.3013 52.1738 78.154C52.0525 78.0067 51.8792 77.8767 51.6538 77.764L51.2378 77.543C50.9778 77.4043 50.7698 77.2223 50.6138 76.997C50.4578 76.7717 50.3798 76.4813 50.3798 76.126C50.3798 75.242 50.8782 74.8 51.8748 74.8H56.3858C57.1572 74.8 57.7422 74.995 58.1408 75.385C58.5395 75.775 58.9078 76.3947 59.2458 77.244L63.5358 88.138ZM82.3643 93.39C81.775 93.39 81.2636 93.3553 80.8303 93.286C80.4056 93.2253 80.0416 93.1603 79.7383 93.091C79.435 93.0303 79.1836 93 78.9843 93C78.7416 93 78.5293 93.0217 78.3473 93.065C78.1653 93.117 77.9963 93.1733 77.8403 93.234C77.693 93.2947 77.5456 93.3467 77.3983 93.39C77.2596 93.442 77.108 93.468 76.9433 93.468C76.5186 93.468 76.2023 93.3597 75.9943 93.143C75.7863 92.9263 75.6303 92.5667 75.5263 92.064L74.8243 88.736C74.755 88.3807 74.794 88.0773 74.9413 87.826C75.0973 87.566 75.3486 87.384 75.6953 87.28C76.0506 87.1673 76.3886 87.1803 76.7093 87.319C77.03 87.449 77.3246 87.7263 77.5933 88.151C77.992 88.7663 78.4123 89.2603 78.8543 89.633C79.305 89.997 79.7816 90.2613 80.2843 90.426C80.7956 90.582 81.3416 90.66 81.9223 90.66C82.6156 90.66 83.166 90.517 83.5733 90.231C83.9806 89.945 84.1843 89.5637 84.1843 89.087C84.1843 88.7837 84.1106 88.5193 83.9633 88.294C83.816 88.06 83.569 87.852 83.2223 87.67C82.8756 87.488 82.399 87.3147 81.7923 87.15C79.8943 86.6387 78.4166 86.0407 77.3593 85.356C76.3106 84.6627 75.574 83.8913 75.1493 83.042C74.7246 82.1927 74.5123 81.274 74.5123 80.286C74.5123 79.168 74.781 78.1713 75.3183 77.296C75.8556 76.412 76.6226 75.7187 77.6193 75.216C78.6246 74.7133 79.8163 74.462 81.1943 74.462C81.905 74.462 82.503 74.5183 82.9883 74.631C83.4823 74.735 83.9026 74.8433 84.2493 74.956C84.6046 75.06 84.9296 75.112 85.2243 75.112C85.4583 75.112 85.6533 75.0513 85.8093 74.93C85.9653 74.8087 86.1256 74.6873 86.2903 74.566C86.4636 74.4447 86.689 74.384 86.9663 74.384C87.3476 74.384 87.664 74.5183 87.9153 74.787C88.1666 75.047 88.405 75.5367 88.6303 76.256L89.7223 79.649C89.8696 80.1083 89.8436 80.5027 89.6443 80.832C89.4536 81.1613 89.146 81.3737 88.7213 81.469C88.3573 81.547 88.0366 81.5123 87.7593 81.365C87.4906 81.2177 87.2523 80.9447 87.0443 80.546C86.663 79.8093 86.1906 79.1983 85.6273 78.713C85.0726 78.219 84.479 77.8507 83.8463 77.608C83.2136 77.3653 82.5896 77.244 81.9743 77.244C81.3416 77.244 80.8476 77.3957 80.4923 77.699C80.1456 77.9937 79.9723 78.3663 79.9723 78.817C79.9723 79.1897 80.0806 79.5147 80.2973 79.792C80.514 80.0693 80.826 80.312 81.2333 80.52C81.6493 80.7193 82.1476 80.9013 82.7283 81.066C84.479 81.5513 85.8353 82.1363 86.7973 82.821C87.768 83.497 88.444 84.2423 88.8253 85.057C89.2153 85.8717 89.4103 86.7253 89.4103 87.618C89.4103 88.6927 89.1286 89.6677 88.5653 90.543C88.002 91.4097 87.1916 92.103 86.1343 92.623C85.0856 93.1343 83.829 93.39 82.3643 93.39Z" fill="#FF8B43"/>
</svg>
